<svg width="770" height="123" viewBox="0 0 770 123" fill="none" xmlns="http://www.w3.org/2000/svg">
<rect x="0.5" y="14.5" width="769" height="94" fill="#282C33"/>
<rect x="0.5" y="14.5" width="769" height="94" stroke="#ABB2BF"/>
<path d="M42.104 66.016H36.188L35.036 70H32.204L37.472 53.44H40.928L46.208 70H43.256L42.104 66.016ZM36.764 63.868H41.516L39.152 55.6L36.764 63.868ZM70.3573 51.94L73.0453 52.24V70H70.6813L70.4893 68.44C70.0573 69.04 69.5413 69.504 68.9413 69.832C68.3413 70.16 67.6693 70.324 66.9253 70.324C65.8373 70.324 64.9413 70.048 64.2373 69.496C63.5333 68.936 63.0093 68.156 62.6653 67.156C62.3293 66.148 62.1613 64.984 62.1613 63.664C62.1613 62.376 62.3613 61.232 62.7613 60.232C63.1613 59.224 63.7333 58.432 64.4773 57.856C65.2213 57.28 66.1173 56.992 67.1653 56.992C67.8293 56.992 68.4253 57.112 68.9533 57.352C69.4813 57.584 69.9493 57.924 70.3573 58.372V51.94ZM67.8733 59.056C66.9693 59.056 66.2653 59.432 65.7613 60.184C65.2573 60.928 65.0053 62.088 65.0053 63.664C65.0053 64.744 65.1093 65.624 65.3173 66.304C65.5253 66.976 65.8253 67.472 66.2173 67.792C66.6093 68.104 67.0813 68.26 67.6333 68.26C68.2413 68.26 68.7693 68.084 69.2173 67.732C69.6653 67.38 70.0453 66.956 70.3573 66.46V60.46C70.0453 60.012 69.6813 59.668 69.2653 59.428C68.8493 59.18 68.3853 59.056 67.8733 59.056ZM79.5399 64.528C79.5959 65.392 79.7799 66.1 80.0919 66.652C80.4039 67.196 80.8119 67.596 81.3159 67.852C81.8279 68.108 82.3879 68.236 82.9959 68.236C83.6199 68.236 84.1959 68.14 84.7239 67.948C85.2519 67.756 85.7839 67.484 86.3199 67.132L87.4839 68.74C86.8919 69.22 86.1999 69.604 85.4079 69.892C84.6159 70.18 83.7679 70.324 82.8639 70.324C81.5519 70.324 80.4399 70.044 79.5279 69.484C78.6239 68.924 77.9359 68.144 77.4639 67.144C76.9919 66.144 76.7559 64.988 76.7559 63.676C76.7559 62.404 76.9879 61.268 77.4519 60.268C77.9159 59.26 78.5799 58.464 79.4439 57.88C80.3079 57.288 81.3399 56.992 82.5399 56.992C83.6679 56.992 84.6359 57.248 85.4439 57.76C86.2599 58.272 86.8879 59 87.3279 59.944C87.7759 60.88 87.9999 62.008 87.9999 63.328C87.9999 63.544 87.9919 63.76 87.9759 63.976C87.9679 64.184 87.9559 64.368 87.9399 64.528H79.5399ZM82.5639 58.984C81.7239 58.984 81.0279 59.284 80.4759 59.884C79.9319 60.484 79.6159 61.42 79.5279 62.692H85.3959C85.3719 61.5 85.1159 60.584 84.6279 59.944C84.1479 59.304 83.4599 58.984 82.5639 58.984ZM102.799 57.328L98.3345 70H95.1905L90.7265 57.328H93.6065L96.8225 67.768L100.051 57.328H102.799ZM108.321 64.528C108.377 65.392 108.561 66.1 108.873 66.652C109.185 67.196 109.593 67.596 110.097 67.852C110.609 68.108 111.169 68.236 111.777 68.236C112.401 68.236 112.977 68.14 113.505 67.948C114.033 67.756 114.565 67.484 115.101 67.132L116.265 68.74C115.673 69.22 114.981 69.604 114.189 69.892C113.397 70.18 112.549 70.324 111.645 70.324C110.333 70.324 109.221 70.044 108.309 69.484C107.405 68.924 106.717 68.144 106.245 67.144C105.773 66.144 105.537 64.988 105.537 63.676C105.537 62.404 105.769 61.268 106.233 60.268C106.697 59.26 107.361 58.464 108.225 57.88C109.089 57.288 110.121 56.992 111.321 56.992C112.449 56.992 113.417 57.248 114.225 57.76C115.041 58.272 115.669 59 116.109 59.944C116.557 60.88 116.781 62.008 116.781 63.328C116.781 63.544 116.773 63.76 116.757 63.976C116.749 64.184 116.737 64.368 116.721 64.528H108.321ZM111.345 58.984C110.505 58.984 109.809 59.284 109.257 59.884C108.713 60.484 108.397 61.42 108.309 62.692H114.177C114.153 61.5 113.897 60.584 113.409 59.944C112.929 59.304 112.241 58.984 111.345 58.984ZM126.048 52.24V66.544C126.048 67.128 126.224 67.544 126.576 67.792C126.936 68.032 127.4 68.152 127.968 68.152C128.336 68.152 128.684 68.112 129.012 68.032C129.34 67.952 129.66 67.852 129.972 67.732L130.656 69.604C130.28 69.796 129.816 69.964 129.264 70.108C128.72 70.252 128.096 70.324 127.392 70.324C126.12 70.324 125.128 69.968 124.416 69.256C123.712 68.536 123.36 67.552 123.36 66.304V54.22H119.532V52.24H126.048ZM139.946 56.992C141.186 56.992 142.23 57.268 143.078 57.82C143.926 58.372 144.566 59.144 144.998 60.136C145.438 61.128 145.658 62.296 145.658 63.64C145.658 64.976 145.434 66.148 144.986 67.156C144.546 68.156 143.898 68.936 143.042 69.496C142.194 70.048 141.158 70.324 139.934 70.324C138.71 70.324 137.67 70.056 136.814 69.52C135.966 68.976 135.318 68.204 134.87 67.204C134.43 66.204 134.21 65.024 134.21 63.664C134.21 62.344 134.43 61.184 134.87 60.184C135.318 59.184 135.97 58.404 136.826 57.844C137.682 57.276 138.722 56.992 139.946 56.992ZM139.946 59.08C138.978 59.08 138.25 59.452 137.762 60.196C137.274 60.932 137.03 62.088 137.03 63.664C137.03 65.232 137.27 66.388 137.75 67.132C138.238 67.876 138.966 68.248 139.934 68.248C140.902 68.248 141.626 67.876 142.106 67.132C142.594 66.388 142.838 65.224 142.838 63.64C142.838 62.08 142.598 60.932 142.118 60.196C141.638 59.452 140.914 59.08 139.946 59.08ZM155.441 56.992C156.561 56.992 157.457 57.268 158.129 57.82C158.801 58.364 159.289 59.136 159.593 60.136C159.897 61.128 160.049 62.296 160.049 63.64C160.049 64.928 159.865 66.076 159.497 67.084C159.129 68.092 158.581 68.884 157.853 69.46C157.133 70.036 156.237 70.324 155.165 70.324C153.837 70.324 152.765 69.856 151.949 68.92V74.872L149.261 75.172V57.328H151.601L151.769 58.96C152.249 58.304 152.805 57.812 153.437 57.484C154.077 57.156 154.745 56.992 155.441 56.992ZM154.697 59.068C154.097 59.068 153.569 59.248 153.113 59.608C152.657 59.968 152.269 60.392 151.949 60.88V66.808C152.253 67.264 152.613 67.616 153.029 67.864C153.453 68.104 153.929 68.224 154.457 68.224C155.361 68.224 156.049 67.86 156.521 67.132C156.993 66.404 157.229 65.244 157.229 63.652C157.229 62.572 157.133 61.696 156.941 61.024C156.757 60.344 156.477 59.848 156.101 59.536C155.733 59.224 155.265 59.068 154.697 59.068ZM165.884 64.528C165.94 65.392 166.124 66.1 166.436 66.652C166.748 67.196 167.156 67.596 167.66 67.852C168.172 68.108 168.732 68.236 169.34 68.236C169.964 68.236 170.54 68.14 171.068 67.948C171.596 67.756 172.128 67.484 172.664 67.132L173.828 68.74C173.236 69.22 172.544 69.604 171.752 69.892C170.96 70.18 170.112 70.324 169.208 70.324C167.896 70.324 166.784 70.044 165.872 69.484C164.968 68.924 164.28 68.144 163.808 67.144C163.336 66.144 163.1 64.988 163.1 63.676C163.1 62.404 163.332 61.268 163.796 60.268C164.26 59.26 164.924 58.464 165.788 57.88C166.652 57.288 167.684 56.992 168.884 56.992C170.012 56.992 170.98 57.248 171.788 57.76C172.604 58.272 173.232 59 173.672 59.944C174.12 60.88 174.344 62.008 174.344 63.328C174.344 63.544 174.336 63.76 174.32 63.976C174.312 64.184 174.3 64.368 174.284 64.528H165.884ZM168.908 58.984C168.068 58.984 167.372 59.284 166.82 59.884C166.276 60.484 165.96 61.42 165.872 62.692H171.74C171.716 61.5 171.46 60.584 170.972 59.944C170.492 59.304 169.804 58.984 168.908 58.984ZM178.162 70V68.08H180.022V59.236H178.162V57.328H182.074L182.566 60.268C183.038 59.204 183.622 58.396 184.318 57.844C185.022 57.284 185.926 57.004 187.03 57.004C187.406 57.004 187.742 57.036 188.038 57.1C188.342 57.156 188.642 57.232 188.938 57.328L188.134 59.632C187.878 59.56 187.638 59.508 187.414 59.476C187.19 59.436 186.942 59.416 186.67 59.416C185.75 59.416 184.954 59.76 184.282 60.448C183.618 61.136 183.094 62.112 182.71 63.376V68.08H185.266V70H178.162ZM186.562 61.996V58.876L186.898 57.328H188.938L188.482 61.996H186.562ZM195.625 52.972C195.625 52.444 195.821 51.996 196.213 51.628C196.605 51.252 197.073 51.064 197.617 51.064C198.169 51.064 198.637 51.252 199.021 51.628C199.405 51.996 199.597 52.444 199.597 52.972C199.597 53.244 199.557 53.52 199.477 53.8C199.405 54.08 199.257 54.448 199.033 54.904L197.161 58.828H195.373L196.369 54.484C196.145 54.316 195.965 54.104 195.829 53.848C195.693 53.584 195.625 53.292 195.625 52.972ZM211.432 68.26C212.272 68.26 212.94 68.112 213.436 67.816C213.932 67.512 214.18 67.096 214.18 66.568C214.18 66.224 214.108 65.932 213.964 65.692C213.82 65.444 213.532 65.22 213.1 65.02C212.668 64.812 212.012 64.596 211.132 64.372C210.3 64.156 209.568 63.9 208.936 63.604C208.312 63.308 207.828 62.924 207.484 62.452C207.14 61.98 206.968 61.372 206.968 60.628C206.968 59.9 207.172 59.264 207.58 58.72C207.988 58.176 208.572 57.752 209.332 57.448C210.1 57.144 211 56.992 212.032 56.992C213.096 56.992 214.024 57.132 214.816 57.412C215.608 57.692 216.284 58.04 216.844 58.456L215.716 60.148C215.22 59.82 214.676 59.552 214.084 59.344C213.5 59.136 212.84 59.032 212.104 59.032C211.248 59.032 210.632 59.16 210.256 59.416C209.888 59.672 209.704 60.012 209.704 60.436C209.704 60.748 209.796 61.012 209.98 61.228C210.172 61.436 210.5 61.632 210.964 61.816C211.428 61.992 212.084 62.2 212.932 62.44C213.756 62.664 214.472 62.928 215.08 63.232C215.696 63.536 216.172 63.94 216.508 64.444C216.852 64.94 217.023 65.588 217.023 66.388C217.023 67.3 216.76 68.048 216.232 68.632C215.712 69.208 215.024 69.636 214.168 69.916C213.32 70.188 212.408 70.324 211.432 70.324C210.256 70.324 209.24 70.156 208.384 69.82C207.528 69.476 206.808 69.048 206.224 68.536L207.652 66.904C208.148 67.304 208.716 67.632 209.356 67.888C209.996 68.136 210.688 68.26 211.432 68.26ZM238.293 58.84C238.733 58.264 239.245 57.812 239.829 57.484C240.421 57.156 241.069 56.992 241.773 56.992C242.885 56.992 243.785 57.268 244.473 57.82C245.169 58.364 245.677 59.136 245.997 60.136C246.325 61.128 246.489 62.296 246.489 63.64C246.489 64.928 246.297 66.076 245.913 67.084C245.529 68.092 244.961 68.884 244.209 69.46C243.465 70.036 242.545 70.324 241.449 70.324C240.033 70.324 238.921 69.8 238.113 68.752L237.969 70H235.605V52.24L238.293 51.94V58.84ZM240.777 68.272C241.689 68.272 242.393 67.9 242.889 67.156C243.393 66.412 243.645 65.244 243.645 63.652C243.645 62.572 243.545 61.696 243.345 61.024C243.145 60.344 242.849 59.848 242.457 59.536C242.073 59.224 241.601 59.068 241.041 59.068C240.441 59.068 239.913 59.248 239.457 59.608C239.001 59.968 238.613 60.392 238.293 60.88V66.808C238.589 67.264 238.945 67.624 239.361 67.888C239.785 68.144 240.257 68.272 240.777 68.272ZM252.227 64.528C252.283 65.392 252.467 66.1 252.779 66.652C253.091 67.196 253.499 67.596 254.003 67.852C254.515 68.108 255.075 68.236 255.683 68.236C256.307 68.236 256.883 68.14 257.411 67.948C257.939 67.756 258.471 67.484 259.007 67.132L260.171 68.74C259.579 69.22 258.887 69.604 258.095 69.892C257.303 70.18 256.455 70.324 255.551 70.324C254.239 70.324 253.127 70.044 252.215 69.484C251.311 68.924 250.623 68.144 250.151 67.144C249.679 66.144 249.443 64.988 249.443 63.676C249.443 62.404 249.675 61.268 250.139 60.268C250.603 59.26 251.267 58.464 252.131 57.88C252.995 57.288 254.027 56.992 255.227 56.992C256.355 56.992 257.323 57.248 258.131 57.76C258.947 58.272 259.575 59 260.015 59.944C260.463 60.88 260.687 62.008 260.687 63.328C260.687 63.544 260.679 63.76 260.663 63.976C260.655 64.184 260.643 64.368 260.627 64.528H252.227ZM255.251 58.984C254.411 58.984 253.715 59.284 253.163 59.884C252.619 60.484 252.303 61.42 252.215 62.692H258.083C258.059 61.5 257.803 60.584 257.315 59.944C256.835 59.304 256.147 58.984 255.251 58.984ZM268.994 68.26C269.834 68.26 270.502 68.112 270.998 67.816C271.494 67.512 271.742 67.096 271.742 66.568C271.742 66.224 271.67 65.932 271.526 65.692C271.382 65.444 271.094 65.22 270.662 65.02C270.23 64.812 269.574 64.596 268.694 64.372C267.862 64.156 267.13 63.9 266.498 63.604C265.874 63.308 265.39 62.924 265.046 62.452C264.702 61.98 264.53 61.372 264.53 60.628C264.53 59.9 264.734 59.264 265.142 58.72C265.55 58.176 266.134 57.752 266.894 57.448C267.662 57.144 268.562 56.992 269.594 56.992C270.658 56.992 271.586 57.132 272.378 57.412C273.17 57.692 273.846 58.04 274.406 58.456L273.278 60.148C272.782 59.82 272.238 59.552 271.646 59.344C271.062 59.136 270.402 59.032 269.666 59.032C268.81 59.032 268.194 59.16 267.818 59.416C267.45 59.672 267.266 60.012 267.266 60.436C267.266 60.748 267.358 61.012 267.542 61.228C267.734 61.436 268.062 61.632 268.526 61.816C268.99 61.992 269.646 62.2 270.494 62.44C271.318 62.664 272.034 62.928 272.642 63.232C273.258 63.536 273.734 63.94 274.07 64.444C274.414 64.94 274.586 65.588 274.586 66.388C274.586 67.3 274.322 68.048 273.794 68.632C273.274 69.208 272.586 69.636 271.73 69.916C270.882 70.188 269.97 70.324 268.994 70.324C267.818 70.324 266.802 70.156 265.946 69.82C265.09 69.476 264.37 69.048 263.786 68.536L265.214 66.904C265.71 67.304 266.278 67.632 266.918 67.888C267.558 68.136 268.25 68.26 268.994 68.26ZM289.361 69.328C288.897 69.624 288.341 69.864 287.693 70.048C287.045 70.232 286.369 70.324 285.665 70.324C284.193 70.324 283.073 69.944 282.305 69.184C281.545 68.416 281.165 67.408 281.165 66.16V59.284H278.345V57.328H281.165V54.496L283.853 54.172V57.328H288.125L287.825 59.284H283.853V66.136C283.853 66.816 284.021 67.324 284.357 67.66C284.701 67.988 285.261 68.152 286.037 68.152C286.501 68.152 286.929 68.096 287.321 67.984C287.713 67.872 288.069 67.728 288.389 67.552L289.361 69.328ZM318.142 69.328C317.678 69.624 317.122 69.864 316.474 70.048C315.826 70.232 315.15 70.324 314.446 70.324C312.974 70.324 311.854 69.944 311.086 69.184C310.326 68.416 309.946 67.408 309.946 66.16V59.284H307.126V57.328H309.946V54.496L312.634 54.172V57.328H316.906L316.606 59.284H312.634V66.136C312.634 66.816 312.802 67.324 313.138 67.66C313.482 67.988 314.042 68.152 314.818 68.152C315.282 68.152 315.71 68.096 316.102 67.984C316.494 67.872 316.85 67.728 317.17 67.552L318.142 69.328ZM327.025 56.992C328.265 56.992 329.309 57.268 330.157 57.82C331.005 58.372 331.645 59.144 332.077 60.136C332.517 61.128 332.737 62.296 332.737 63.64C332.737 64.976 332.513 66.148 332.065 67.156C331.625 68.156 330.977 68.936 330.121 69.496C329.273 70.048 328.237 70.324 327.013 70.324C325.789 70.324 324.749 70.056 323.893 69.52C323.045 68.976 322.397 68.204 321.949 67.204C321.509 66.204 321.289 65.024 321.289 63.664C321.289 62.344 321.509 61.184 321.949 60.184C322.397 59.184 323.049 58.404 323.905 57.844C324.761 57.276 325.801 56.992 327.025 56.992ZM327.025 59.08C326.057 59.08 325.329 59.452 324.841 60.196C324.353 60.932 324.109 62.088 324.109 63.664C324.109 65.232 324.349 66.388 324.829 67.132C325.317 67.876 326.045 68.248 327.013 68.248C327.981 68.248 328.705 67.876 329.185 67.132C329.673 66.388 329.917 65.224 329.917 63.64C329.917 62.08 329.677 60.932 329.197 60.196C328.717 59.452 327.993 59.08 327.025 59.08ZM341.415 56.992C342.655 56.992 343.699 57.268 344.547 57.82C345.395 58.372 346.035 59.144 346.467 60.136C346.907 61.128 347.127 62.296 347.127 63.64C347.127 64.976 346.903 66.148 346.455 67.156C346.015 68.156 345.367 68.936 344.511 69.496C343.663 70.048 342.627 70.324 341.403 70.324C340.179 70.324 339.139 70.056 338.283 69.52C337.435 68.976 336.787 68.204 336.339 67.204C335.899 66.204 335.679 65.024 335.679 63.664C335.679 62.344 335.899 61.184 336.339 60.184C336.787 59.184 337.439 58.404 338.295 57.844C339.151 57.276 340.191 56.992 341.415 56.992ZM341.415 59.08C340.447 59.08 339.719 59.452 339.231 60.196C338.743 60.932 338.499 62.088 338.499 63.664C338.499 65.232 338.739 66.388 339.219 67.132C339.707 67.876 340.435 68.248 341.403 68.248C342.371 68.248 343.095 67.876 343.575 67.132C344.063 66.388 344.307 65.224 344.307 63.64C344.307 62.08 344.067 60.932 343.587 60.196C343.107 59.452 342.383 59.08 341.415 59.08ZM356.298 52.24V66.544C356.298 67.128 356.474 67.544 356.826 67.792C357.186 68.032 357.65 68.152 358.218 68.152C358.586 68.152 358.934 68.112 359.262 68.032C359.59 67.952 359.91 67.852 360.222 67.732L360.906 69.604C360.53 69.796 360.066 69.964 359.514 70.108C358.97 70.252 358.346 70.324 357.642 70.324C356.37 70.324 355.378 69.968 354.666 69.256C353.962 68.536 353.61 67.552 353.61 66.304V54.22H349.782V52.24H356.298ZM386.435 57.328V68.032H389.879V70H379.955V68.032H383.747V59.296H380.075V57.328H386.435ZM384.563 51.124C385.091 51.124 385.515 51.284 385.835 51.604C386.163 51.924 386.327 52.324 386.327 52.804C386.327 53.284 386.163 53.688 385.835 54.016C385.515 54.344 385.091 54.508 384.563 54.508C384.051 54.508 383.631 54.344 383.303 54.016C382.975 53.688 382.811 53.284 382.811 52.804C382.811 52.324 382.975 51.924 383.303 51.604C383.631 51.284 384.051 51.124 384.563 51.124ZM398.51 68.26C399.35 68.26 400.018 68.112 400.514 67.816C401.01 67.512 401.258 67.096 401.258 66.568C401.258 66.224 401.186 65.932 401.042 65.692C400.898 65.444 400.61 65.22 400.178 65.02C399.746 64.812 399.09 64.596 398.21 64.372C397.378 64.156 396.646 63.9 396.014 63.604C395.39 63.308 394.906 62.924 394.562 62.452C394.218 61.98 394.046 61.372 394.046 60.628C394.046 59.9 394.25 59.264 394.658 58.72C395.066 58.176 395.65 57.752 396.41 57.448C397.178 57.144 398.078 56.992 399.11 56.992C400.174 56.992 401.102 57.132 401.894 57.412C402.686 57.692 403.362 58.04 403.922 58.456L402.794 60.148C402.298 59.82 401.754 59.552 401.162 59.344C400.578 59.136 399.918 59.032 399.182 59.032C398.326 59.032 397.71 59.16 397.334 59.416C396.966 59.672 396.782 60.012 396.782 60.436C396.782 60.748 396.874 61.012 397.058 61.228C397.25 61.436 397.578 61.632 398.042 61.816C398.506 61.992 399.162 62.2 400.01 62.44C400.834 62.664 401.55 62.928 402.158 63.232C402.774 63.536 403.25 63.94 403.586 64.444C403.93 64.94 404.102 65.588 404.102 66.388C404.102 67.3 403.838 68.048 403.31 68.632C402.79 69.208 402.102 69.636 401.246 69.916C400.398 70.188 399.486 70.324 398.51 70.324C397.334 70.324 396.318 70.156 395.462 69.82C394.606 69.476 393.886 69.048 393.302 68.536L394.73 66.904C395.226 67.304 395.794 67.632 396.434 67.888C397.074 68.136 397.766 68.26 398.51 68.26ZM433.771 57.328L429.403 70.048C429.075 71.008 428.655 71.852 428.143 72.58C427.631 73.316 426.975 73.908 426.175 74.356C425.375 74.804 424.383 75.08 423.199 75.184L422.851 73.168C423.707 73.032 424.387 72.832 424.891 72.568C425.403 72.312 425.807 71.972 426.103 71.548C426.407 71.124 426.675 70.608 426.907 70H425.995L421.723 57.328H424.579L427.771 68.128L431.011 57.328H433.771ZM442.15 56.992C443.39 56.992 444.434 57.268 445.282 57.82C446.13 58.372 446.77 59.144 447.202 60.136C447.642 61.128 447.862 62.296 447.862 63.64C447.862 64.976 447.638 66.148 447.19 67.156C446.75 68.156 446.102 68.936 445.246 69.496C444.398 70.048 443.362 70.324 442.138 70.324C440.914 70.324 439.874 70.056 439.018 69.52C438.17 68.976 437.522 68.204 437.074 67.204C436.634 66.204 436.414 65.024 436.414 63.664C436.414 62.344 436.634 61.184 437.074 60.184C437.522 59.184 438.174 58.404 439.03 57.844C439.886 57.276 440.926 56.992 442.15 56.992ZM442.15 59.08C441.182 59.08 440.454 59.452 439.966 60.196C439.478 60.932 439.234 62.088 439.234 63.664C439.234 65.232 439.474 66.388 439.954 67.132C440.442 67.876 441.17 68.248 442.138 68.248C443.106 68.248 443.83 67.876 444.31 67.132C444.798 66.388 445.042 65.224 445.042 63.64C445.042 62.08 444.802 60.932 444.322 60.196C443.842 59.452 443.118 59.08 442.15 59.08ZM454.152 57.328V66.184C454.152 66.936 454.3 67.472 454.596 67.792C454.9 68.112 455.356 68.272 455.964 68.272C456.54 68.272 457.096 68.1 457.632 67.756C458.168 67.412 458.592 66.992 458.904 66.496V57.328H461.592V70H459.276L459.108 68.38C458.636 69.012 458.04 69.496 457.32 69.832C456.6 70.16 455.864 70.324 455.112 70.324C453.888 70.324 452.972 69.988 452.364 69.316C451.764 68.636 451.464 67.704 451.464 66.52V57.328H454.152ZM465.975 70V68.08H467.835V59.236H465.975V57.328H469.887L470.379 60.268C470.851 59.204 471.435 58.396 472.131 57.844C472.835 57.284 473.739 57.004 474.843 57.004C475.219 57.004 475.555 57.036 475.851 57.1C476.155 57.156 476.455 57.232 476.751 57.328L475.947 59.632C475.691 59.56 475.451 59.508 475.227 59.476C475.003 59.436 474.755 59.416 474.483 59.416C473.563 59.416 472.767 59.76 472.095 60.448C471.431 61.136 470.907 62.112 470.523 63.376V68.08H473.079V70H465.975ZM474.375 61.996V58.876L474.711 57.328H476.751L476.295 61.996H474.375ZM505.736 57.328L501.272 70H498.128L493.664 57.328H496.544L499.76 67.768L502.988 57.328H505.736ZM514.103 56.992C515.343 56.992 516.387 57.268 517.235 57.82C518.083 58.372 518.723 59.144 519.155 60.136C519.595 61.128 519.815 62.296 519.815 63.64C519.815 64.976 519.591 66.148 519.143 67.156C518.703 68.156 518.055 68.936 517.199 69.496C516.351 70.048 515.315 70.324 514.091 70.324C512.867 70.324 511.827 70.056 510.971 69.52C510.123 68.976 509.475 68.204 509.027 67.204C508.587 66.204 508.367 65.024 508.367 63.664C508.367 62.344 508.587 61.184 509.027 60.184C509.475 59.184 510.127 58.404 510.983 57.844C511.839 57.276 512.879 56.992 514.103 56.992ZM514.103 59.08C513.135 59.08 512.407 59.452 511.919 60.196C511.431 60.932 511.187 62.088 511.187 63.664C511.187 65.232 511.427 66.388 511.907 67.132C512.395 67.876 513.123 68.248 514.091 68.248C515.059 68.248 515.783 67.876 516.263 67.132C516.751 66.388 516.995 65.224 516.995 63.64C516.995 62.08 516.755 60.932 516.275 60.196C515.795 59.452 515.071 59.08 514.103 59.08ZM530.341 57.328V68.032H533.785V70H523.861V68.032H527.653V59.296H523.981V57.328H530.341ZM528.469 51.124C528.997 51.124 529.421 51.284 529.741 51.604C530.069 51.924 530.233 52.324 530.233 52.804C530.233 53.284 530.069 53.688 529.741 54.016C529.421 54.344 528.997 54.508 528.469 54.508C527.957 54.508 527.537 54.344 527.209 54.016C526.881 53.688 526.717 53.284 526.717 52.804C526.717 52.324 526.881 51.924 527.209 51.604C527.537 51.284 527.957 51.124 528.469 51.124ZM543.916 68.116C544.508 68.116 545.06 68.016 545.572 67.816C546.084 67.608 546.572 67.34 547.036 67.012L548.284 68.74C547.732 69.212 547.06 69.596 546.268 69.892C545.484 70.18 544.672 70.324 543.832 70.324C542.536 70.324 541.428 70.052 540.508 69.508C539.588 68.956 538.884 68.184 538.396 67.192C537.908 66.2 537.664 65.044 537.664 63.724C537.664 62.436 537.908 61.288 538.396 60.28C538.892 59.264 539.604 58.464 540.532 57.88C541.46 57.288 542.576 56.992 543.88 56.992C544.744 56.992 545.54 57.12 546.268 57.376C546.996 57.632 547.664 58.012 548.272 58.516L547.036 60.208C546.54 59.864 546.032 59.604 545.512 59.428C545 59.244 544.472 59.152 543.928 59.152C542.928 59.152 542.108 59.52 541.468 60.256C540.836 60.992 540.52 62.148 540.52 63.724C540.52 64.78 540.664 65.632 540.952 66.28C541.248 66.92 541.652 67.388 542.164 67.684C542.676 67.972 543.26 68.116 543.916 68.116ZM554.431 64.528C554.487 65.392 554.671 66.1 554.983 66.652C555.295 67.196 555.703 67.596 556.207 67.852C556.719 68.108 557.279 68.236 557.887 68.236C558.511 68.236 559.087 68.14 559.615 67.948C560.143 67.756 560.675 67.484 561.211 67.132L562.375 68.74C561.783 69.22 561.091 69.604 560.299 69.892C559.507 70.18 558.659 70.324 557.755 70.324C556.443 70.324 555.331 70.044 554.419 69.484C553.515 68.924 552.827 68.144 552.355 67.144C551.883 66.144 551.646 64.988 551.646 63.676C551.646 62.404 551.879 61.268 552.343 60.268C552.807 59.26 553.471 58.464 554.335 57.88C555.199 57.288 556.231 56.992 557.431 56.992C558.559 56.992 559.527 57.248 560.335 57.76C561.151 58.272 561.779 59 562.219 59.944C562.667 60.88 562.891 62.008 562.891 63.328C562.891 63.544 562.883 63.76 562.867 63.976C562.859 64.184 562.847 64.368 562.831 64.528H554.431ZM557.455 58.984C556.615 58.984 555.919 59.284 555.367 59.884C554.823 60.484 554.507 61.42 554.419 62.692H560.287C560.263 61.5 560.007 60.584 559.519 59.944C559.039 59.304 558.351 58.984 557.455 58.984ZM569.325 67.996C569.325 67.564 569.425 67.176 569.625 66.832C569.833 66.48 570.113 66.2 570.465 65.992C570.817 65.784 571.209 65.68 571.641 65.68C572.081 65.68 572.477 65.784 572.829 65.992C573.181 66.2 573.457 66.48 573.657 66.832C573.865 67.176 573.969 67.564 573.969 67.996C573.969 68.42 573.865 68.812 573.657 69.172C573.457 69.524 573.181 69.804 572.829 70.012C572.477 70.22 572.081 70.324 571.641 70.324C571.209 70.324 570.817 70.22 570.465 70.012C570.113 69.804 569.833 69.524 569.625 69.172C569.425 68.812 569.325 68.42 569.325 67.996ZM606.35 58.228C606.35 59.044 606.182 59.756 605.846 60.364C605.518 60.964 605.066 61.464 604.49 61.864C603.922 62.264 603.286 62.572 602.582 62.788L607.274 70H604.034L599.87 63.184H598.058V70H595.274V53.44H599.894C602.022 53.44 603.63 53.84 604.718 54.64C605.806 55.432 606.35 56.628 606.35 58.228ZM603.434 58.228C603.434 57.268 603.154 56.576 602.594 56.152C602.042 55.72 601.194 55.504 600.05 55.504H598.058V61.144H600.11C601.174 61.144 601.994 60.92 602.57 60.472C603.146 60.016 603.434 59.268 603.434 58.228ZM611.993 64.528C612.049 65.392 612.233 66.1 612.545 66.652C612.857 67.196 613.265 67.596 613.769 67.852C614.281 68.108 614.841 68.236 615.449 68.236C616.073 68.236 616.649 68.14 617.177 67.948C617.705 67.756 618.237 67.484 618.773 67.132L619.937 68.74C619.345 69.22 618.653 69.604 617.861 69.892C617.069 70.18 616.221 70.324 615.317 70.324C614.005 70.324 612.893 70.044 611.981 69.484C611.077 68.924 610.389 68.144 609.917 67.144C609.445 66.144 609.209 64.988 609.209 63.676C609.209 62.404 609.441 61.268 609.905 60.268C610.369 59.26 611.033 58.464 611.897 57.88C612.761 57.288 613.793 56.992 614.993 56.992C616.121 56.992 617.089 57.248 617.897 57.76C618.713 58.272 619.341 59 619.781 59.944C620.229 60.88 620.453 62.008 620.453 63.328C620.453 63.544 620.445 63.76 620.429 63.976C620.421 64.184 620.409 64.368 620.393 64.528H611.993ZM615.017 58.984C614.177 58.984 613.481 59.284 612.929 59.884C612.385 60.484 612.069 61.42 611.981 62.692H617.849C617.825 61.5 617.569 60.584 617.081 59.944C616.601 59.304 615.913 58.984 615.017 58.984ZM633.836 66.892C633.836 67.388 633.912 67.752 634.064 67.984C634.216 68.208 634.46 68.376 634.796 68.488L634.196 70.312C633.572 70.24 633.036 70.068 632.588 69.796C632.14 69.524 631.8 69.112 631.568 68.56C631.104 69.144 630.516 69.584 629.804 69.88C629.092 70.176 628.332 70.324 627.524 70.324C626.244 70.324 625.228 69.964 624.476 69.244C623.732 68.516 623.36 67.564 623.36 66.388C623.36 65.052 623.88 64.024 624.92 63.304C625.96 62.584 627.448 62.224 629.384 62.224H631.196V61.396C631.196 60.58 630.948 59.992 630.452 59.632C629.964 59.272 629.272 59.092 628.376 59.092C627.96 59.092 627.456 59.148 626.864 59.26C626.272 59.364 625.652 59.528 625.004 59.752L624.344 57.856C625.136 57.56 625.912 57.344 626.672 57.208C627.432 57.064 628.136 56.992 628.784 56.992C630.48 56.992 631.744 57.368 632.576 58.12C633.416 58.872 633.836 59.912 633.836 61.24V66.892ZM628.34 68.344C628.884 68.344 629.416 68.2 629.936 67.912C630.456 67.624 630.876 67.22 631.196 66.7V63.904H629.708C628.444 63.904 627.54 64.116 626.996 64.54C626.452 64.956 626.18 65.532 626.18 66.268C626.18 66.94 626.36 67.456 626.72 67.816C627.088 68.168 627.628 68.344 628.34 68.344ZM644.65 68.116C645.242 68.116 645.794 68.016 646.306 67.816C646.818 67.608 647.306 67.34 647.77 67.012L649.018 68.74C648.466 69.212 647.794 69.596 647.002 69.892C646.218 70.18 645.406 70.324 644.566 70.324C643.27 70.324 642.162 70.052 641.242 69.508C640.322 68.956 639.618 68.184 639.13 67.192C638.642 66.2 638.398 65.044 638.398 63.724C638.398 62.436 638.642 61.288 639.13 60.28C639.626 59.264 640.338 58.464 641.266 57.88C642.194 57.288 643.31 56.992 644.614 56.992C645.478 56.992 646.274 57.12 647.002 57.376C647.73 57.632 648.398 58.012 649.006 58.516L647.77 60.208C647.274 59.864 646.766 59.604 646.246 59.428C645.734 59.244 645.206 59.152 644.662 59.152C643.662 59.152 642.842 59.52 642.202 60.256C641.57 60.992 641.254 62.148 641.254 63.724C641.254 64.78 641.398 65.632 641.686 66.28C641.982 66.92 642.386 67.388 642.898 67.684C643.41 67.972 643.994 68.116 644.65 68.116ZM655.621 51.976V58.876C656.133 58.252 656.733 57.784 657.421 57.472C658.109 57.152 658.817 56.992 659.545 56.992C660.737 56.992 661.625 57.324 662.209 57.988C662.793 58.644 663.085 59.568 663.085 60.76V70H660.397V61.18C660.397 60.42 660.253 59.876 659.965 59.548C659.677 59.212 659.213 59.044 658.573 59.044C658.173 59.044 657.789 59.136 657.421 59.32C657.061 59.496 656.725 59.728 656.413 60.016C656.109 60.304 655.845 60.612 655.621 60.94V70H652.933V52.264L655.621 51.976ZM686.79 56.992C688.03 56.992 689.074 57.268 689.922 57.82C690.77 58.372 691.41 59.144 691.842 60.136C692.282 61.128 692.502 62.296 692.502 63.64C692.502 64.976 692.278 66.148 691.83 67.156C691.39 68.156 690.742 68.936 689.886 69.496C689.038 70.048 688.002 70.324 686.778 70.324C685.554 70.324 684.514 70.056 683.658 69.52C682.81 68.976 682.162 68.204 681.714 67.204C681.274 66.204 681.054 65.024 681.054 63.664C681.054 62.344 681.274 61.184 681.714 60.184C682.162 59.184 682.814 58.404 683.67 57.844C684.526 57.276 685.566 56.992 686.79 56.992ZM686.79 59.08C685.822 59.08 685.094 59.452 684.606 60.196C684.118 60.932 683.874 62.088 683.874 63.664C683.874 65.232 684.114 66.388 684.594 67.132C685.082 67.876 685.81 68.248 686.778 68.248C687.746 68.248 688.47 67.876 688.95 67.132C689.438 66.388 689.682 65.224 689.682 63.64C689.682 62.08 689.442 60.932 688.962 60.196C688.482 59.452 687.758 59.08 686.79 59.08ZM698.793 57.328V66.184C698.793 66.936 698.941 67.472 699.237 67.792C699.541 68.112 699.997 68.272 700.605 68.272C701.181 68.272 701.737 68.1 702.273 67.756C702.809 67.412 703.233 66.992 703.545 66.496V57.328H706.233V70H703.917L703.749 68.38C703.277 69.012 702.681 69.496 701.961 69.832C701.241 70.16 700.505 70.324 699.753 70.324C698.529 70.324 697.613 69.988 697.005 69.316C696.405 68.636 696.105 67.704 696.105 66.52V57.328H698.793ZM721.079 69.328C720.615 69.624 720.059 69.864 719.411 70.048C718.763 70.232 718.087 70.324 717.383 70.324C715.911 70.324 714.791 69.944 714.023 69.184C713.263 68.416 712.883 67.408 712.883 66.16V59.284H710.063V57.328H712.883V54.496L715.571 54.172V57.328H719.843L719.543 59.284H715.571V66.136C715.571 66.816 715.739 67.324 716.075 67.66C716.419 67.988 716.979 68.152 717.755 68.152C718.219 68.152 718.647 68.096 719.039 67.984C719.431 67.872 719.787 67.728 720.107 67.552L721.079 69.328ZM727.622 67.996C727.622 67.564 727.722 67.176 727.922 66.832C728.13 66.48 728.41 66.2 728.762 65.992C729.114 65.784 729.506 65.68 729.938 65.68C730.378 65.68 730.774 65.784 731.126 65.992C731.478 66.2 731.754 66.48 731.954 66.832C732.162 67.176 732.266 67.564 732.266 67.996C732.266 68.42 732.162 68.812 731.954 69.172C731.754 69.524 731.478 69.804 731.126 70.012C730.774 70.22 730.378 70.324 729.938 70.324C729.506 70.324 729.114 70.22 728.762 70.012C728.41 69.804 728.13 69.524 727.922 69.172C727.722 68.812 727.622 68.42 727.622 67.996Z" fill="white"/>
<rect width="41.472" height="28.704" transform="translate(11)" fill="#282C33"/>
<path d="M29.56 19.616C29.56 21.0453 29.0373 22.2507 27.992 23.232C26.968 24.2133 25.72 24.704 24.248 24.704C22.7333 24.704 21.4747 24.2133 20.472 23.232C19.4907 22.2507 19 21.0453 19 19.616C19 18.9333 19.096 18.208 19.288 17.44C19.48 16.672 19.864 15.68 20.44 14.464L25.4 4H30.2L27.544 15.584C28.1413 16.0107 28.6213 16.576 28.984 17.28C29.368 17.9627 29.56 18.7413 29.56 19.616ZM43.8 19.616C43.8 21.0453 43.2773 22.2507 42.232 23.232C41.1867 24.2133 39.9387 24.704 38.488 24.704C37.016 24.704 35.768 24.2133 34.744 23.232C33.7413 22.2507 33.24 21.0453 33.24 19.616C33.24 18.9333 33.336 18.208 33.528 17.44C33.72 16.672 34.1147 15.68 34.712 14.464L39.704 4H44.472L41.784 15.584C42.4027 16.0107 42.8933 16.576 43.256 17.28C43.6187 17.9627 43.8 18.7413 43.8 19.616Z" fill="#ABB2BF"/>
<rect width="41.472" height="28.704" transform="translate(712 94)" fill="#282C33"/>
<path d="M730.56 113.616C730.56 115.045 730.037 116.251 728.992 117.232C727.968 118.213 726.72 118.704 725.248 118.704C723.733 118.704 722.475 118.213 721.472 117.232C720.491 116.251 720 115.045 720 113.616C720 112.933 720.096 112.208 720.288 111.44C720.48 110.672 720.864 109.68 721.44 108.464L726.4 98H731.2L728.544 109.584C729.141 110.011 729.621 110.576 729.984 111.28C730.368 111.963 730.56 112.741 730.56 113.616ZM744.8 113.616C744.8 115.045 744.277 116.251 743.232 117.232C742.187 118.213 740.939 118.704 739.488 118.704C738.016 118.704 736.768 118.213 735.744 117.232C734.741 116.251 734.24 115.045 734.24 113.616C734.24 112.933 734.336 112.208 734.528 111.44C734.72 110.672 735.115 109.68 735.712 108.464L740.704 98H745.472L742.784 109.584C743.403 110.011 743.893 110.576 744.256 111.28C744.619 111.963 744.8 112.741 744.8 113.616Z" fill="#ABB2BF"/>
</svg>
