<svg width="755" height="140" viewBox="0 0 755 140" fill="none" xmlns="http://www.w3.org/2000/svg">
<rect x="0.5" y="14.5" width="754" height="125" stroke="#ABB2BF"/>
<path d="M42.932 57.328V67.336C42.932 68.912 42.604 70.22 41.948 71.26C41.3 72.3 40.348 73.128 39.092 73.744C37.836 74.368 36.304 74.844 34.496 75.172L34.064 73.108C35.32 72.868 36.412 72.536 37.34 72.112C38.268 71.688 38.984 71.108 39.488 70.372C39.992 69.636 40.244 68.684 40.244 67.516V59.296H35.24V57.328H42.932ZM40.832 51.124C41.352 51.124 41.776 51.284 42.104 51.604C42.432 51.924 42.596 52.324 42.596 52.804C42.596 53.284 42.432 53.688 42.104 54.016C41.776 54.344 41.352 54.508 40.832 54.508C40.312 54.508 39.888 54.344 39.56 54.016C39.24 53.688 39.08 53.284 39.08 52.804C39.08 52.324 39.24 51.924 39.56 51.604C39.888 51.284 40.312 51.124 40.832 51.124ZM51.2146 57.328V66.184C51.2146 66.936 51.3626 67.472 51.6586 67.792C51.9626 68.112 52.4186 68.272 53.0266 68.272C53.6026 68.272 54.1586 68.1 54.6946 67.756C55.2306 67.412 55.6546 66.992 55.9666 66.496V57.328H58.6546V70H56.3386L56.1706 68.38C55.6986 69.012 55.1026 69.496 54.3826 69.832C53.6626 70.16 52.9266 70.324 52.1746 70.324C50.9506 70.324 50.0346 69.988 49.4266 69.316C48.8266 68.636 48.5266 67.704 48.5266 66.52V57.328H51.2146ZM67.5253 68.26C68.3653 68.26 69.0333 68.112 69.5293 67.816C70.0253 67.512 70.2733 67.096 70.2733 66.568C70.2733 66.224 70.2013 65.932 70.0573 65.692C69.9133 65.444 69.6253 65.22 69.1933 65.02C68.7613 64.812 68.1053 64.596 67.2253 64.372C66.3933 64.156 65.6613 63.9 65.0293 63.604C64.4053 63.308 63.9213 62.924 63.5773 62.452C63.2333 61.98 63.0613 61.372 63.0613 60.628C63.0613 59.9 63.2653 59.264 63.6733 58.72C64.0813 58.176 64.6653 57.752 65.4253 57.448C66.1933 57.144 67.0933 56.992 68.1253 56.992C69.1893 56.992 70.1173 57.132 70.9093 57.412C71.7013 57.692 72.3773 58.04 72.9373 58.456L71.8093 60.148C71.3133 59.82 70.7693 59.552 70.1773 59.344C69.5933 59.136 68.9333 59.032 68.1973 59.032C67.3413 59.032 66.7253 59.16 66.3493 59.416C65.9813 59.672 65.7973 60.012 65.7973 60.436C65.7973 60.748 65.8893 61.012 66.0733 61.228C66.2653 61.436 66.5933 61.632 67.0573 61.816C67.5213 61.992 68.1773 62.2 69.0253 62.44C69.8493 62.664 70.5653 62.928 71.1733 63.232C71.7893 63.536 72.2653 63.94 72.6013 64.444C72.9453 64.94 73.1172 65.588 73.1172 66.388C73.1172 67.3 72.8533 68.048 72.3253 68.632C71.8053 69.208 71.1173 69.636 70.2613 69.916C69.4133 70.188 68.5013 70.324 67.5253 70.324C66.3493 70.324 65.3333 70.156 64.4773 69.82C63.6213 69.476 62.9013 69.048 62.3173 68.536L63.7453 66.904C64.2413 67.304 64.8093 67.632 65.4493 67.888C66.0893 68.136 66.7813 68.26 67.5253 68.26ZM87.8919 69.328C87.4279 69.624 86.8719 69.864 86.2239 70.048C85.5759 70.232 84.8999 70.324 84.1959 70.324C82.7239 70.324 81.6039 69.944 80.8359 69.184C80.0759 68.416 79.6959 67.408 79.6959 66.16V59.284H76.8759V57.328H79.6959V54.496L82.3839 54.172V57.328H86.6559L86.3559 59.284H82.3839V66.136C82.3839 66.816 82.5519 67.324 82.8879 67.66C83.2319 67.988 83.7919 68.152 84.5679 68.152C85.0319 68.152 85.4599 68.096 85.8519 67.984C86.2439 67.872 86.5999 67.728 86.9199 67.552L87.8919 69.328ZM108.777 58.84C109.217 58.264 109.729 57.812 110.313 57.484C110.905 57.156 111.553 56.992 112.257 56.992C113.369 56.992 114.269 57.268 114.957 57.82C115.653 58.364 116.161 59.136 116.481 60.136C116.809 61.128 116.973 62.296 116.973 63.64C116.973 64.928 116.781 66.076 116.397 67.084C116.013 68.092 115.445 68.884 114.693 69.46C113.949 70.036 113.029 70.324 111.933 70.324C110.517 70.324 109.405 69.8 108.597 68.752L108.453 70H106.089V52.24L108.777 51.94V58.84ZM111.261 68.272C112.173 68.272 112.877 67.9 113.373 67.156C113.877 66.412 114.129 65.244 114.129 63.652C114.129 62.572 114.029 61.696 113.829 61.024C113.629 60.344 113.333 59.848 112.941 59.536C112.557 59.224 112.085 59.068 111.525 59.068C110.925 59.068 110.397 59.248 109.941 59.608C109.485 59.968 109.097 60.392 108.777 60.88V66.808C109.073 67.264 109.429 67.624 109.845 67.888C110.269 68.144 110.741 68.272 111.261 68.272ZM122.712 64.528C122.768 65.392 122.952 66.1 123.264 66.652C123.576 67.196 123.984 67.596 124.488 67.852C125 68.108 125.56 68.236 126.168 68.236C126.792 68.236 127.368 68.14 127.896 67.948C128.424 67.756 128.956 67.484 129.492 67.132L130.656 68.74C130.064 69.22 129.372 69.604 128.58 69.892C127.788 70.18 126.94 70.324 126.036 70.324C124.724 70.324 123.612 70.044 122.7 69.484C121.796 68.924 121.108 68.144 120.636 67.144C120.164 66.144 119.928 64.988 119.928 63.676C119.928 62.404 120.16 61.268 120.624 60.268C121.088 59.26 121.752 58.464 122.616 57.88C123.48 57.288 124.512 56.992 125.712 56.992C126.84 56.992 127.808 57.248 128.616 57.76C129.432 58.272 130.06 59 130.5 59.944C130.948 60.88 131.172 62.008 131.172 63.328C131.172 63.544 131.164 63.76 131.148 63.976C131.14 64.184 131.128 64.368 131.112 64.528H122.712ZM125.736 58.984C124.896 58.984 124.2 59.284 123.648 59.884C123.104 60.484 122.788 61.42 122.7 62.692H128.568C128.544 61.5 128.288 60.584 127.8 59.944C127.32 59.304 126.632 58.984 125.736 58.984ZM140.978 68.116C141.57 68.116 142.122 68.016 142.634 67.816C143.146 67.608 143.634 67.34 144.098 67.012L145.346 68.74C144.794 69.212 144.122 69.596 143.33 69.892C142.546 70.18 141.734 70.324 140.894 70.324C139.598 70.324 138.49 70.052 137.57 69.508C136.65 68.956 135.946 68.184 135.458 67.192C134.97 66.2 134.726 65.044 134.726 63.724C134.726 62.436 134.97 61.288 135.458 60.28C135.954 59.264 136.666 58.464 137.594 57.88C138.522 57.288 139.638 56.992 140.942 56.992C141.806 56.992 142.602 57.12 143.33 57.376C144.058 57.632 144.726 58.012 145.334 58.516L144.098 60.208C143.602 59.864 143.094 59.604 142.574 59.428C142.062 59.244 141.534 59.152 140.99 59.152C139.99 59.152 139.17 59.52 138.53 60.256C137.898 60.992 137.582 62.148 137.582 63.724C137.582 64.78 137.726 65.632 138.014 66.28C138.31 66.92 138.714 67.388 139.226 67.684C139.738 67.972 140.322 68.116 140.978 68.116ZM158.945 66.892C158.945 67.388 159.021 67.752 159.173 67.984C159.325 68.208 159.569 68.376 159.905 68.488L159.305 70.312C158.681 70.24 158.145 70.068 157.697 69.796C157.249 69.524 156.909 69.112 156.677 68.56C156.213 69.144 155.625 69.584 154.913 69.88C154.201 70.176 153.441 70.324 152.633 70.324C151.353 70.324 150.337 69.964 149.585 69.244C148.841 68.516 148.469 67.564 148.469 66.388C148.469 65.052 148.989 64.024 150.029 63.304C151.069 62.584 152.557 62.224 154.493 62.224H156.305V61.396C156.305 60.58 156.057 59.992 155.561 59.632C155.073 59.272 154.381 59.092 153.485 59.092C153.069 59.092 152.565 59.148 151.973 59.26C151.381 59.364 150.761 59.528 150.113 59.752L149.453 57.856C150.245 57.56 151.021 57.344 151.781 57.208C152.541 57.064 153.245 56.992 153.893 56.992C155.589 56.992 156.853 57.368 157.685 58.12C158.525 58.872 158.945 59.912 158.945 61.24V66.892ZM153.449 68.344C153.993 68.344 154.525 68.2 155.045 67.912C155.565 67.624 155.985 67.22 156.305 66.7V63.904H154.817C153.553 63.904 152.649 64.116 152.105 64.54C151.561 64.956 151.289 65.532 151.289 66.268C151.289 66.94 151.469 67.456 151.829 67.816C152.197 68.168 152.737 68.344 153.449 68.344ZM166.34 57.328V66.184C166.34 66.936 166.488 67.472 166.784 67.792C167.088 68.112 167.544 68.272 168.152 68.272C168.728 68.272 169.284 68.1 169.82 67.756C170.356 67.412 170.78 66.992 171.092 66.496V57.328H173.78V70H171.464L171.296 68.38C170.824 69.012 170.228 69.496 169.508 69.832C168.788 70.16 168.052 70.324 167.3 70.324C166.076 70.324 165.16 69.988 164.552 69.316C163.952 68.636 163.652 67.704 163.652 66.52V57.328H166.34ZM182.65 68.26C183.49 68.26 184.158 68.112 184.654 67.816C185.15 67.512 185.398 67.096 185.398 66.568C185.398 66.224 185.326 65.932 185.182 65.692C185.038 65.444 184.75 65.22 184.318 65.02C183.886 64.812 183.23 64.596 182.35 64.372C181.518 64.156 180.786 63.9 180.154 63.604C179.53 63.308 179.046 62.924 178.702 62.452C178.358 61.98 178.186 61.372 178.186 60.628C178.186 59.9 178.39 59.264 178.798 58.72C179.206 58.176 179.79 57.752 180.55 57.448C181.318 57.144 182.218 56.992 183.25 56.992C184.314 56.992 185.242 57.132 186.034 57.412C186.826 57.692 187.502 58.04 188.062 58.456L186.934 60.148C186.438 59.82 185.894 59.552 185.302 59.344C184.718 59.136 184.058 59.032 183.322 59.032C182.466 59.032 181.85 59.16 181.474 59.416C181.106 59.672 180.922 60.012 180.922 60.436C180.922 60.748 181.014 61.012 181.198 61.228C181.39 61.436 181.718 61.632 182.182 61.816C182.646 61.992 183.302 62.2 184.15 62.44C184.974 62.664 185.69 62.928 186.298 63.232C186.914 63.536 187.39 63.94 187.726 64.444C188.07 64.94 188.242 65.588 188.242 66.388C188.242 67.3 187.978 68.048 187.45 68.632C186.93 69.208 186.242 69.636 185.386 69.916C184.538 70.188 183.626 70.324 182.65 70.324C181.474 70.324 180.458 70.156 179.602 69.82C178.746 69.476 178.026 69.048 177.442 68.536L178.87 66.904C179.366 67.304 179.934 67.632 180.574 67.888C181.214 68.136 181.906 68.26 182.65 68.26ZM194.665 64.528C194.721 65.392 194.905 66.1 195.217 66.652C195.529 67.196 195.937 67.596 196.441 67.852C196.953 68.108 197.513 68.236 198.121 68.236C198.745 68.236 199.321 68.14 199.849 67.948C200.377 67.756 200.909 67.484 201.445 67.132L202.609 68.74C202.017 69.22 201.325 69.604 200.533 69.892C199.741 70.18 198.893 70.324 197.989 70.324C196.677 70.324 195.565 70.044 194.653 69.484C193.749 68.924 193.061 68.144 192.589 67.144C192.117 66.144 191.881 64.988 191.881 63.676C191.881 62.404 192.113 61.268 192.577 60.268C193.041 59.26 193.705 58.464 194.569 57.88C195.433 57.288 196.465 56.992 197.665 56.992C198.793 56.992 199.761 57.248 200.569 57.76C201.385 58.272 202.013 59 202.453 59.944C202.901 60.88 203.125 62.008 203.125 63.328C203.125 63.544 203.117 63.76 203.101 63.976C203.093 64.184 203.081 64.368 203.065 64.528H194.665ZM197.689 58.984C196.849 58.984 196.153 59.284 195.601 59.884C195.057 60.484 194.741 61.42 194.653 62.692H200.521C200.497 61.5 200.241 60.584 199.753 59.944C199.273 59.304 198.585 58.984 197.689 58.984ZM232.302 57.328L227.934 70.048C227.606 71.008 227.186 71.852 226.674 72.58C226.162 73.316 225.506 73.908 224.706 74.356C223.906 74.804 222.914 75.08 221.73 75.184L221.382 73.168C222.238 73.032 222.918 72.832 223.422 72.568C223.934 72.312 224.338 71.972 224.634 71.548C224.938 71.124 225.206 70.608 225.438 70H224.526L220.254 57.328H223.11L226.302 68.128L229.542 57.328H232.302ZM240.681 56.992C241.921 56.992 242.965 57.268 243.813 57.82C244.661 58.372 245.301 59.144 245.733 60.136C246.173 61.128 246.393 62.296 246.393 63.64C246.393 64.976 246.169 66.148 245.721 67.156C245.281 68.156 244.633 68.936 243.777 69.496C242.929 70.048 241.893 70.324 240.669 70.324C239.445 70.324 238.405 70.056 237.549 69.52C236.701 68.976 236.053 68.204 235.605 67.204C235.165 66.204 234.945 65.024 234.945 63.664C234.945 62.344 235.165 61.184 235.605 60.184C236.053 59.184 236.705 58.404 237.561 57.844C238.417 57.276 239.457 56.992 240.681 56.992ZM240.681 59.08C239.713 59.08 238.985 59.452 238.497 60.196C238.009 60.932 237.765 62.088 237.765 63.664C237.765 65.232 238.005 66.388 238.485 67.132C238.973 67.876 239.701 68.248 240.669 68.248C241.637 68.248 242.361 67.876 242.841 67.132C243.329 66.388 243.573 65.224 243.573 63.64C243.573 62.08 243.333 60.932 242.853 60.196C242.373 59.452 241.649 59.08 240.681 59.08ZM252.683 57.328V66.184C252.683 66.936 252.831 67.472 253.127 67.792C253.431 68.112 253.887 68.272 254.495 68.272C255.071 68.272 255.627 68.1 256.163 67.756C256.699 67.412 257.123 66.992 257.435 66.496V57.328H260.123V70H257.807L257.639 68.38C257.167 69.012 256.571 69.496 255.851 69.832C255.131 70.16 254.395 70.324 253.643 70.324C252.419 70.324 251.503 69.988 250.895 69.316C250.295 68.636 249.995 67.704 249.995 66.52V57.328H252.683ZM264.506 70V68.08H266.366V59.236H264.506V57.328H268.418L268.91 60.268C269.382 59.204 269.966 58.396 270.662 57.844C271.366 57.284 272.27 57.004 273.374 57.004C273.75 57.004 274.086 57.036 274.382 57.1C274.686 57.156 274.986 57.232 275.282 57.328L274.478 59.632C274.222 59.56 273.982 59.508 273.758 59.476C273.534 59.436 273.286 59.416 273.014 59.416C272.094 59.416 271.298 59.76 270.626 60.448C269.962 61.136 269.438 62.112 269.054 63.376V68.08H271.61V70H264.506ZM272.906 61.996V58.876L273.242 57.328H275.282L274.826 61.996H272.906ZM299.275 68.116C299.867 68.116 300.419 68.016 300.931 67.816C301.443 67.608 301.931 67.34 302.395 67.012L303.643 68.74C303.091 69.212 302.419 69.596 301.627 69.892C300.843 70.18 300.031 70.324 299.191 70.324C297.895 70.324 296.787 70.052 295.867 69.508C294.947 68.956 294.243 68.184 293.755 67.192C293.267 66.2 293.023 65.044 293.023 63.724C293.023 62.436 293.267 61.288 293.755 60.28C294.251 59.264 294.963 58.464 295.891 57.88C296.819 57.288 297.935 56.992 299.239 56.992C300.103 56.992 300.899 57.12 301.627 57.376C302.355 57.632 303.023 58.012 303.631 58.516L302.395 60.208C301.899 59.864 301.391 59.604 300.871 59.428C300.359 59.244 299.831 59.152 299.287 59.152C298.287 59.152 297.467 59.52 296.827 60.256C296.195 60.992 295.879 62.148 295.879 63.724C295.879 64.78 296.023 65.632 296.311 66.28C296.607 66.92 297.011 67.388 297.523 67.684C298.035 67.972 298.619 68.116 299.275 68.116ZM312.634 56.992C313.874 56.992 314.918 57.268 315.766 57.82C316.614 58.372 317.254 59.144 317.686 60.136C318.126 61.128 318.346 62.296 318.346 63.64C318.346 64.976 318.122 66.148 317.674 67.156C317.234 68.156 316.586 68.936 315.73 69.496C314.882 70.048 313.846 70.324 312.622 70.324C311.398 70.324 310.358 70.056 309.502 69.52C308.654 68.976 308.006 68.204 307.558 67.204C307.118 66.204 306.898 65.024 306.898 63.664C306.898 62.344 307.118 61.184 307.558 60.184C308.006 59.184 308.658 58.404 309.514 57.844C310.37 57.276 311.41 56.992 312.634 56.992ZM312.634 59.08C311.666 59.08 310.938 59.452 310.45 60.196C309.962 60.932 309.718 62.088 309.718 63.664C309.718 65.232 309.958 66.388 310.438 67.132C310.926 67.876 311.654 68.248 312.622 68.248C313.59 68.248 314.314 67.876 314.794 67.132C315.282 66.388 315.526 65.224 315.526 63.64C315.526 62.08 315.286 60.932 314.806 60.196C314.326 59.452 313.602 59.08 312.634 59.08ZM329.389 51.94L332.077 52.24V70H329.713L329.521 68.44C329.089 69.04 328.573 69.504 327.973 69.832C327.373 70.16 326.701 70.324 325.957 70.324C324.869 70.324 323.973 70.048 323.269 69.496C322.565 68.936 322.041 68.156 321.697 67.156C321.361 66.148 321.193 64.984 321.193 63.664C321.193 62.376 321.393 61.232 321.793 60.232C322.193 59.224 322.765 58.432 323.509 57.856C324.253 57.28 325.149 56.992 326.197 56.992C326.861 56.992 327.457 57.112 327.985 57.352C328.513 57.584 328.981 57.924 329.389 58.372V51.94ZM326.905 59.056C326.001 59.056 325.297 59.432 324.793 60.184C324.289 60.928 324.037 62.088 324.037 63.664C324.037 64.744 324.141 65.624 324.349 66.304C324.557 66.976 324.857 67.472 325.249 67.792C325.641 68.104 326.113 68.26 326.665 68.26C327.273 68.26 327.801 68.084 328.249 67.732C328.697 67.38 329.077 66.956 329.389 66.46V60.46C329.077 60.012 328.713 59.668 328.297 59.428C327.881 59.18 327.417 59.056 326.905 59.056ZM338.571 64.528C338.627 65.392 338.811 66.1 339.123 66.652C339.435 67.196 339.843 67.596 340.347 67.852C340.859 68.108 341.419 68.236 342.027 68.236C342.651 68.236 343.227 68.14 343.755 67.948C344.283 67.756 344.815 67.484 345.351 67.132L346.515 68.74C345.923 69.22 345.231 69.604 344.439 69.892C343.647 70.18 342.799 70.324 341.895 70.324C340.583 70.324 339.471 70.044 338.559 69.484C337.655 68.924 336.967 68.144 336.495 67.144C336.023 66.144 335.787 64.988 335.787 63.676C335.787 62.404 336.019 61.268 336.483 60.268C336.947 59.26 337.611 58.464 338.475 57.88C339.339 57.288 340.371 56.992 341.571 56.992C342.699 56.992 343.667 57.248 344.475 57.76C345.291 58.272 345.919 59 346.359 59.944C346.807 60.88 347.031 62.008 347.031 63.328C347.031 63.544 347.023 63.76 347.007 63.976C346.999 64.184 346.987 64.368 346.971 64.528H338.571ZM341.595 58.984C340.755 58.984 340.059 59.284 339.507 59.884C338.963 60.484 338.647 61.42 338.559 62.692H344.427C344.403 61.5 344.147 60.584 343.659 59.944C343.179 59.304 342.491 58.984 341.595 58.984ZM375.032 70H371.672L370.244 61L368.708 70H365.42L363.272 57.328H365.864L367.184 68.332L368.948 58.936H371.636L373.28 68.332L374.6 57.328H377.096L375.032 70ZM384.587 56.992C385.827 56.992 386.871 57.268 387.719 57.82C388.567 58.372 389.207 59.144 389.639 60.136C390.079 61.128 390.299 62.296 390.299 63.64C390.299 64.976 390.075 66.148 389.627 67.156C389.187 68.156 388.539 68.936 387.683 69.496C386.835 70.048 385.799 70.324 384.575 70.324C383.351 70.324 382.311 70.056 381.455 69.52C380.607 68.976 379.959 68.204 379.511 67.204C379.071 66.204 378.851 65.024 378.851 63.664C378.851 62.344 379.071 61.184 379.511 60.184C379.959 59.184 380.611 58.404 381.467 57.844C382.323 57.276 383.363 56.992 384.587 56.992ZM384.587 59.08C383.619 59.08 382.891 59.452 382.403 60.196C381.915 60.932 381.671 62.088 381.671 63.664C381.671 65.232 381.911 66.388 382.391 67.132C382.879 67.876 383.607 68.248 384.575 68.248C385.543 68.248 386.267 67.876 386.747 67.132C387.235 66.388 387.479 65.224 387.479 63.64C387.479 62.08 387.239 60.932 386.759 60.196C386.279 59.452 385.555 59.08 384.587 59.08ZM394.022 70V68.08H395.882V59.236H394.022V57.328H397.934L398.426 60.268C398.898 59.204 399.482 58.396 400.178 57.844C400.882 57.284 401.786 57.004 402.89 57.004C403.266 57.004 403.602 57.036 403.898 57.1C404.202 57.156 404.502 57.232 404.798 57.328L403.994 59.632C403.738 59.56 403.498 59.508 403.274 59.476C403.05 59.436 402.802 59.416 402.53 59.416C401.61 59.416 400.814 59.76 400.142 60.448C399.478 61.136 398.954 62.112 398.57 63.376V68.08H401.126V70H394.022ZM402.422 61.996V58.876L402.758 57.328H404.798L404.342 61.996H402.422ZM419.452 57.328L414.328 62.992L419.992 70H416.704L411.256 63.064L416.32 57.328H419.452ZM411.064 51.94V70H408.376V52.24L411.064 51.94ZM427.291 68.26C428.131 68.26 428.799 68.112 429.295 67.816C429.791 67.512 430.039 67.096 430.039 66.568C430.039 66.224 429.967 65.932 429.823 65.692C429.679 65.444 429.391 65.22 428.959 65.02C428.527 64.812 427.871 64.596 426.991 64.372C426.159 64.156 425.427 63.9 424.795 63.604C424.171 63.308 423.687 62.924 423.343 62.452C422.999 61.98 422.827 61.372 422.827 60.628C422.827 59.9 423.031 59.264 423.439 58.72C423.847 58.176 424.431 57.752 425.191 57.448C425.959 57.144 426.859 56.992 427.891 56.992C428.955 56.992 429.883 57.132 430.675 57.412C431.467 57.692 432.143 58.04 432.703 58.456L431.575 60.148C431.079 59.82 430.535 59.552 429.943 59.344C429.359 59.136 428.699 59.032 427.963 59.032C427.107 59.032 426.491 59.16 426.115 59.416C425.747 59.672 425.563 60.012 425.563 60.436C425.563 60.748 425.655 61.012 425.839 61.228C426.031 61.436 426.359 61.632 426.823 61.816C427.287 61.992 427.943 62.2 428.791 62.44C429.615 62.664 430.331 62.928 430.939 63.232C431.555 63.536 432.031 63.94 432.367 64.444C432.711 64.94 432.883 65.588 432.883 66.388C432.883 67.3 432.619 68.048 432.091 68.632C431.571 69.208 430.883 69.636 430.027 69.916C429.179 70.188 428.267 70.324 427.291 70.324C426.115 70.324 425.099 70.156 424.243 69.82C423.387 69.476 422.667 69.048 422.083 68.536L423.511 66.904C424.007 67.304 424.575 67.632 425.215 67.888C425.855 68.136 426.547 68.26 427.291 68.26ZM458.904 51.94L461.592 52.24V70H459.228L459.036 68.44C458.604 69.04 458.088 69.504 457.488 69.832C456.888 70.16 456.216 70.324 455.472 70.324C454.384 70.324 453.488 70.048 452.784 69.496C452.08 68.936 451.556 68.156 451.212 67.156C450.876 66.148 450.708 64.984 450.708 63.664C450.708 62.376 450.908 61.232 451.308 60.232C451.708 59.224 452.28 58.432 453.024 57.856C453.768 57.28 454.664 56.992 455.712 56.992C456.376 56.992 456.972 57.112 457.5 57.352C458.028 57.584 458.496 57.924 458.904 58.372V51.94ZM456.42 59.056C455.516 59.056 454.812 59.432 454.308 60.184C453.804 60.928 453.552 62.088 453.552 63.664C453.552 64.744 453.656 65.624 453.864 66.304C454.072 66.976 454.372 67.472 454.764 67.792C455.156 68.104 455.628 68.26 456.18 68.26C456.788 68.26 457.316 68.084 457.764 67.732C458.212 67.38 458.592 66.956 458.904 66.46V60.46C458.592 60.012 458.228 59.668 457.812 59.428C457.396 59.18 456.932 59.056 456.42 59.056ZM470.931 56.992C472.171 56.992 473.215 57.268 474.063 57.82C474.911 58.372 475.551 59.144 475.983 60.136C476.423 61.128 476.643 62.296 476.643 63.64C476.643 64.976 476.419 66.148 475.971 67.156C475.531 68.156 474.883 68.936 474.027 69.496C473.179 70.048 472.143 70.324 470.919 70.324C469.695 70.324 468.655 70.056 467.799 69.52C466.951 68.976 466.303 68.204 465.855 67.204C465.415 66.204 465.195 65.024 465.195 63.664C465.195 62.344 465.415 61.184 465.855 60.184C466.303 59.184 466.955 58.404 467.811 57.844C468.667 57.276 469.707 56.992 470.931 56.992ZM470.931 59.08C469.963 59.08 469.235 59.452 468.747 60.196C468.259 60.932 468.015 62.088 468.015 63.664C468.015 65.232 468.255 66.388 468.735 67.132C469.223 67.876 469.951 68.248 470.919 68.248C471.887 68.248 472.611 67.876 473.091 67.132C473.579 66.388 473.823 65.224 473.823 63.64C473.823 62.08 473.583 60.932 473.103 60.196C472.623 59.452 471.899 59.08 470.931 59.08ZM482.477 64.528C482.533 65.392 482.717 66.1 483.029 66.652C483.341 67.196 483.749 67.596 484.253 67.852C484.765 68.108 485.325 68.236 485.933 68.236C486.557 68.236 487.133 68.14 487.661 67.948C488.189 67.756 488.721 67.484 489.257 67.132L490.421 68.74C489.829 69.22 489.137 69.604 488.345 69.892C487.553 70.18 486.705 70.324 485.801 70.324C484.489 70.324 483.377 70.044 482.465 69.484C481.561 68.924 480.873 68.144 480.401 67.144C479.929 66.144 479.693 64.988 479.693 63.676C479.693 62.404 479.925 61.268 480.389 60.268C480.853 59.26 481.517 58.464 482.381 57.88C483.245 57.288 484.277 56.992 485.477 56.992C486.605 56.992 487.573 57.248 488.381 57.76C489.197 58.272 489.825 59 490.265 59.944C490.713 60.88 490.937 62.008 490.937 63.328C490.937 63.544 490.929 63.76 490.913 63.976C490.905 64.184 490.893 64.368 490.877 64.528H482.477ZM485.501 58.984C484.661 58.984 483.965 59.284 483.413 59.884C482.869 60.484 482.553 61.42 482.465 62.692H488.333C488.309 61.5 488.053 60.584 487.565 59.944C487.085 59.304 486.397 58.984 485.501 58.984ZM499.244 68.26C500.084 68.26 500.752 68.112 501.248 67.816C501.744 67.512 501.992 67.096 501.992 66.568C501.992 66.224 501.92 65.932 501.776 65.692C501.632 65.444 501.344 65.22 500.912 65.02C500.48 64.812 499.824 64.596 498.944 64.372C498.112 64.156 497.38 63.9 496.748 63.604C496.124 63.308 495.64 62.924 495.296 62.452C494.952 61.98 494.78 61.372 494.78 60.628C494.78 59.9 494.984 59.264 495.392 58.72C495.8 58.176 496.384 57.752 497.144 57.448C497.912 57.144 498.812 56.992 499.844 56.992C500.908 56.992 501.836 57.132 502.628 57.412C503.42 57.692 504.096 58.04 504.656 58.456L503.528 60.148C503.032 59.82 502.488 59.552 501.896 59.344C501.312 59.136 500.652 59.032 499.916 59.032C499.06 59.032 498.444 59.16 498.068 59.416C497.7 59.672 497.516 60.012 497.516 60.436C497.516 60.748 497.608 61.012 497.792 61.228C497.984 61.436 498.312 61.632 498.776 61.816C499.24 61.992 499.896 62.2 500.744 62.44C501.568 62.664 502.284 62.928 502.892 63.232C503.508 63.536 503.984 63.94 504.32 64.444C504.664 64.94 504.836 65.588 504.836 66.388C504.836 67.3 504.572 68.048 504.044 68.632C503.524 69.208 502.836 69.636 501.98 69.916C501.132 70.188 500.22 70.324 499.244 70.324C498.068 70.324 497.052 70.156 496.196 69.82C495.34 69.476 494.62 69.048 494.036 68.536L495.464 66.904C495.96 67.304 496.528 67.632 497.168 67.888C497.808 68.136 498.5 68.26 499.244 68.26ZM509.027 70V57.328H511.343L511.547 58.972C512.075 58.324 512.699 57.832 513.419 57.496C514.139 57.16 514.879 56.992 515.639 56.992C516.823 56.992 517.707 57.324 518.291 57.988C518.883 58.644 519.179 59.568 519.179 60.76V70H516.491V62.092C516.491 61.356 516.447 60.764 516.359 60.316C516.271 59.868 516.095 59.544 515.831 59.344C515.575 59.144 515.191 59.044 514.679 59.044C514.271 59.044 513.883 59.132 513.515 59.308C513.147 59.484 512.811 59.716 512.507 60.004C512.203 60.284 511.939 60.584 511.715 60.904V70H509.027ZM526.609 52.972C526.609 52.444 526.805 51.996 527.197 51.628C527.589 51.252 528.057 51.064 528.601 51.064C529.153 51.064 529.621 51.252 530.005 51.628C530.389 51.996 530.581 52.444 530.581 52.972C530.581 53.244 530.541 53.52 530.461 53.8C530.389 54.08 530.241 54.448 530.017 54.904L528.145 58.828H526.357L527.353 54.484C527.129 54.316 526.949 54.104 526.813 53.848C526.677 53.584 526.609 53.292 526.609 52.972ZM548.392 69.328C547.928 69.624 547.372 69.864 546.724 70.048C546.076 70.232 545.4 70.324 544.696 70.324C543.224 70.324 542.104 69.944 541.336 69.184C540.576 68.416 540.196 67.408 540.196 66.16V59.284H537.376V57.328H540.196V54.496L542.884 54.172V57.328H547.156L546.856 59.284H542.884V66.136C542.884 66.816 543.052 67.324 543.388 67.66C543.732 67.988 544.292 68.152 545.068 68.152C545.532 68.152 545.96 68.096 546.352 67.984C546.744 67.872 547.1 67.728 547.42 67.552L548.392 69.328ZM575.325 56.992C575.805 56.992 576.237 57.096 576.621 57.304C577.005 57.512 577.305 57.876 577.521 58.396C577.745 58.916 577.857 59.644 577.857 60.58V70H575.469V60.952C575.469 60.288 575.421 59.812 575.325 59.524C575.237 59.236 575.001 59.092 574.617 59.092C574.313 59.092 574.005 59.188 573.693 59.38C573.381 59.564 573.065 59.884 572.745 60.34V70H570.573V60.952C570.573 60.288 570.525 59.812 570.429 59.524C570.341 59.236 570.105 59.092 569.721 59.092C569.409 59.092 569.097 59.188 568.785 59.38C568.481 59.564 568.169 59.884 567.849 60.34V70H565.449V57.328H567.477L567.657 58.696C568.017 58.192 568.409 57.784 568.833 57.472C569.257 57.152 569.769 56.992 570.369 56.992C570.849 56.992 571.285 57.112 571.677 57.352C572.069 57.592 572.357 58.012 572.541 58.612C572.893 58.132 573.293 57.744 573.741 57.448C574.189 57.144 574.717 56.992 575.325 56.992ZM583.212 64.528C583.268 65.392 583.452 66.1 583.764 66.652C584.076 67.196 584.484 67.596 584.988 67.852C585.5 68.108 586.06 68.236 586.668 68.236C587.292 68.236 587.868 68.14 588.396 67.948C588.924 67.756 589.456 67.484 589.992 67.132L591.156 68.74C590.564 69.22 589.872 69.604 589.08 69.892C588.288 70.18 587.44 70.324 586.536 70.324C585.224 70.324 584.112 70.044 583.2 69.484C582.296 68.924 581.608 68.144 581.136 67.144C580.664 66.144 580.428 64.988 580.428 63.676C580.428 62.404 580.66 61.268 581.124 60.268C581.588 59.26 582.252 58.464 583.116 57.88C583.98 57.288 585.012 56.992 586.212 56.992C587.34 56.992 588.308 57.248 589.116 57.76C589.932 58.272 590.56 59 591 59.944C591.448 60.88 591.672 62.008 591.672 63.328C591.672 63.544 591.664 63.76 591.648 63.976C591.64 64.184 591.628 64.368 591.612 64.528H583.212ZM586.236 58.984C585.396 58.984 584.7 59.284 584.148 59.884C583.604 60.484 583.288 61.42 583.2 62.692H589.068C589.044 61.5 588.788 60.584 588.3 59.944C587.82 59.304 587.132 58.984 586.236 58.984ZM605.054 66.892C605.054 67.388 605.13 67.752 605.282 67.984C605.434 68.208 605.678 68.376 606.014 68.488L605.414 70.312C604.79 70.24 604.254 70.068 603.806 69.796C603.358 69.524 603.018 69.112 602.786 68.56C602.322 69.144 601.734 69.584 601.022 69.88C600.31 70.176 599.55 70.324 598.742 70.324C597.462 70.324 596.446 69.964 595.694 69.244C594.95 68.516 594.578 67.564 594.578 66.388C594.578 65.052 595.098 64.024 596.138 63.304C597.178 62.584 598.666 62.224 600.602 62.224H602.414V61.396C602.414 60.58 602.166 59.992 601.67 59.632C601.182 59.272 600.49 59.092 599.594 59.092C599.178 59.092 598.674 59.148 598.082 59.26C597.49 59.364 596.87 59.528 596.222 59.752L595.562 57.856C596.354 57.56 597.13 57.344 597.89 57.208C598.65 57.064 599.354 56.992 600.002 56.992C601.698 56.992 602.962 57.368 603.794 58.12C604.634 58.872 605.054 59.912 605.054 61.24V66.892ZM599.558 68.344C600.102 68.344 600.634 68.2 601.154 67.912C601.674 67.624 602.094 67.22 602.414 66.7V63.904H600.926C599.662 63.904 598.758 64.116 598.214 64.54C597.67 64.956 597.398 65.532 597.398 66.268C597.398 66.94 597.578 67.456 597.938 67.816C598.306 68.168 598.846 68.344 599.558 68.344ZM609.761 70V57.328H612.077L612.281 58.972C612.809 58.324 613.433 57.832 614.153 57.496C614.873 57.16 615.613 56.992 616.373 56.992C617.557 56.992 618.441 57.324 619.025 57.988C619.617 58.644 619.913 59.568 619.913 60.76V70H617.225V62.092C617.225 61.356 617.181 60.764 617.093 60.316C617.005 59.868 616.829 59.544 616.565 59.344C616.309 59.144 615.925 59.044 615.413 59.044C615.005 59.044 614.617 59.132 614.249 59.308C613.881 59.484 613.545 59.716 613.241 60.004C612.937 60.284 612.673 60.584 612.449 60.904V70H609.761ZM649.63 57.328L645.262 70.048C644.934 71.008 644.514 71.852 644.002 72.58C643.49 73.316 642.834 73.908 642.034 74.356C641.234 74.804 640.242 75.08 639.058 75.184L638.71 73.168C639.566 73.032 640.246 72.832 640.75 72.568C641.262 72.312 641.666 71.972 641.962 71.548C642.266 71.124 642.534 70.608 642.766 70H641.854L637.582 57.328H640.438L643.63 68.128L646.87 57.328H649.63ZM658.009 56.992C659.249 56.992 660.293 57.268 661.141 57.82C661.989 58.372 662.629 59.144 663.061 60.136C663.501 61.128 663.721 62.296 663.721 63.64C663.721 64.976 663.497 66.148 663.049 67.156C662.609 68.156 661.961 68.936 661.105 69.496C660.257 70.048 659.221 70.324 657.997 70.324C656.773 70.324 655.733 70.056 654.877 69.52C654.029 68.976 653.381 68.204 652.933 67.204C652.493 66.204 652.273 65.024 652.273 63.664C652.273 62.344 652.493 61.184 652.933 60.184C653.381 59.184 654.033 58.404 654.889 57.844C655.745 57.276 656.785 56.992 658.009 56.992ZM658.009 59.08C657.041 59.08 656.313 59.452 655.825 60.196C655.337 60.932 655.093 62.088 655.093 63.664C655.093 65.232 655.333 66.388 655.813 67.132C656.301 67.876 657.029 68.248 657.997 68.248C658.965 68.248 659.689 67.876 660.169 67.132C660.657 66.388 660.901 65.224 660.901 63.64C660.901 62.08 660.661 60.932 660.181 60.196C659.701 59.452 658.977 59.08 658.009 59.08ZM670.012 57.328V66.184C670.012 66.936 670.16 67.472 670.456 67.792C670.76 68.112 671.216 68.272 671.824 68.272C672.4 68.272 672.956 68.1 673.492 67.756C674.028 67.412 674.452 66.992 674.764 66.496V57.328H677.452V70H675.136L674.968 68.38C674.496 69.012 673.9 69.496 673.18 69.832C672.46 70.16 671.724 70.324 670.972 70.324C669.748 70.324 668.832 69.988 668.224 69.316C667.624 68.636 667.324 67.704 667.324 66.52V57.328H670.012ZM684.906 52.972C684.906 52.444 685.102 51.996 685.494 51.628C685.886 51.252 686.354 51.064 686.898 51.064C687.45 51.064 687.918 51.252 688.302 51.628C688.686 51.996 688.878 52.444 688.878 52.972C688.878 53.244 688.838 53.52 688.758 53.8C688.686 54.08 688.538 54.448 688.314 54.904L686.442 58.828H684.654L685.65 54.484C685.426 54.316 685.246 54.104 685.11 53.848C684.974 53.584 684.906 53.292 684.906 52.972ZM696.225 70V68.08H698.085V59.236H696.225V57.328H700.137L700.629 60.268C701.101 59.204 701.685 58.396 702.381 57.844C703.085 57.284 703.989 57.004 705.093 57.004C705.469 57.004 705.805 57.036 706.101 57.1C706.405 57.156 706.705 57.232 707.001 57.328L706.197 59.632C705.941 59.56 705.701 59.508 705.477 59.476C705.253 59.436 705.005 59.416 704.733 59.416C703.813 59.416 703.017 59.76 702.345 60.448C701.681 61.136 701.157 62.112 700.773 63.376V68.08H703.329V70H696.225ZM704.625 61.996V58.876L704.961 57.328H707.001L706.545 61.996H704.625ZM712.727 64.528C712.783 65.392 712.967 66.1 713.279 66.652C713.591 67.196 713.999 67.596 714.503 67.852C715.015 68.108 715.575 68.236 716.183 68.236C716.807 68.236 717.383 68.14 717.911 67.948C718.439 67.756 718.971 67.484 719.507 67.132L720.671 68.74C720.079 69.22 719.387 69.604 718.595 69.892C717.803 70.18 716.955 70.324 716.051 70.324C714.739 70.324 713.627 70.044 712.715 69.484C711.811 68.924 711.123 68.144 710.651 67.144C710.179 66.144 709.943 64.988 709.943 63.676C709.943 62.404 710.175 61.268 710.639 60.268C711.103 59.26 711.767 58.464 712.631 57.88C713.495 57.288 714.527 56.992 715.727 56.992C716.855 56.992 717.823 57.248 718.631 57.76C719.447 58.272 720.075 59 720.515 59.944C720.963 60.88 721.187 62.008 721.187 63.328C721.187 63.544 721.179 63.76 721.163 63.976C721.155 64.184 721.143 64.368 721.127 64.528H712.727ZM715.751 58.984C714.911 58.984 714.215 59.284 713.663 59.884C713.119 60.484 712.803 61.42 712.715 62.692H718.583C718.559 61.5 718.303 60.584 717.815 59.944C717.335 59.304 716.647 58.984 715.751 58.984ZM41.84 82.94C42.616 82.94 43.308 83.008 43.916 83.144C44.532 83.272 45.1 83.448 45.62 83.672L44.828 85.532C44.404 85.356 43.96 85.228 43.496 85.148C43.04 85.068 42.576 85.028 42.104 85.028C41.272 85.028 40.656 85.188 40.256 85.508C39.856 85.82 39.656 86.316 39.656 86.996V89.24H43.892L43.604 91.22H39.656V101H36.98V91.22H34.1V89.24H36.98V86.972C36.98 86.172 37.18 85.472 37.58 84.872C37.988 84.264 38.556 83.792 39.284 83.456C40.012 83.112 40.864 82.94 41.84 82.94ZM53.6026 87.992C54.8426 87.992 55.8866 88.268 56.7346 88.82C57.5826 89.372 58.2226 90.144 58.6546 91.136C59.0946 92.128 59.3146 93.296 59.3146 94.64C59.3146 95.976 59.0906 97.148 58.6426 98.156C58.2026 99.156 57.5546 99.936 56.6986 100.496C55.8506 101.048 54.8146 101.324 53.5906 101.324C52.3666 101.324 51.3266 101.056 50.4706 100.52C49.6226 99.976 48.9746 99.204 48.5266 98.204C48.0866 97.204 47.8666 96.024 47.8666 94.664C47.8666 93.344 48.0866 92.184 48.5266 91.184C48.9746 90.184 49.6266 89.404 50.4826 88.844C51.3386 88.276 52.3786 87.992 53.6026 87.992ZM53.6026 90.08C52.6346 90.08 51.9066 90.452 51.4186 91.196C50.9306 91.932 50.6866 93.088 50.6866 94.664C50.6866 96.232 50.9266 97.388 51.4066 98.132C51.8946 98.876 52.6226 99.248 53.5906 99.248C54.5586 99.248 55.2826 98.876 55.7626 98.132C56.2506 97.388 56.4946 96.224 56.4946 94.64C56.4946 93.08 56.2546 91.932 55.7746 91.196C55.2946 90.452 54.5706 90.08 53.6026 90.08ZM68.4853 83.24V97.544C68.4853 98.128 68.6613 98.544 69.0133 98.792C69.3733 99.032 69.8373 99.152 70.4053 99.152C70.7733 99.152 71.1213 99.112 71.4493 99.032C71.7773 98.952 72.0973 98.852 72.4093 98.732L73.0933 100.604C72.7173 100.796 72.2533 100.964 71.7013 101.108C71.1573 101.252 70.5333 101.324 69.8293 101.324C68.5573 101.324 67.5653 100.968 66.8533 100.256C66.1493 99.536 65.7973 98.552 65.7973 97.304V85.22H61.9693V83.24H68.4853ZM82.8759 83.24V97.544C82.8759 98.128 83.0519 98.544 83.4039 98.792C83.7639 99.032 84.2279 99.152 84.7959 99.152C85.1639 99.152 85.5119 99.112 85.8399 99.032C86.1679 98.952 86.4879 98.852 86.7999 98.732L87.4839 100.604C87.1079 100.796 86.6439 100.964 86.0919 101.108C85.5479 101.252 84.9239 101.324 84.2199 101.324C82.9479 101.324 81.9559 100.968 81.2439 100.256C80.5399 99.536 80.1879 98.552 80.1879 97.304V85.22H76.3599V83.24H82.8759ZM96.7745 87.992C98.0145 87.992 99.0585 88.268 99.9065 88.82C100.755 89.372 101.395 90.144 101.827 91.136C102.267 92.128 102.487 93.296 102.487 94.64C102.487 95.976 102.263 97.148 101.815 98.156C101.375 99.156 100.727 99.936 99.8705 100.496C99.0225 101.048 97.9865 101.324 96.7625 101.324C95.5385 101.324 94.4985 101.056 93.6425 100.52C92.7945 99.976 92.1465 99.204 91.6985 98.204C91.2585 97.204 91.0385 96.024 91.0385 94.664C91.0385 93.344 91.2585 92.184 91.6985 91.184C92.1465 90.184 92.7985 89.404 93.6545 88.844C94.5105 88.276 95.5505 87.992 96.7745 87.992ZM96.7745 90.08C95.8065 90.08 95.0785 90.452 94.5905 91.196C94.1025 91.932 93.8585 93.088 93.8585 94.664C93.8585 96.232 94.0985 97.388 94.5785 98.132C95.0665 98.876 95.7945 99.248 96.7625 99.248C97.7305 99.248 98.4545 98.876 98.9345 98.132C99.4225 97.388 99.6665 96.224 99.6665 94.64C99.6665 93.08 99.4265 91.932 98.9465 91.196C98.4665 90.452 97.7425 90.08 96.7745 90.08ZM116.001 101H112.641L111.213 92L109.677 101H106.389L104.241 88.328H106.833L108.153 99.332L109.917 89.936H112.605L114.249 99.332L115.569 88.328H118.065L116.001 101ZM127.404 88.328V99.032H130.848V101H120.924V99.032H124.716V90.296H121.044V88.328H127.404ZM125.532 82.124C126.06 82.124 126.484 82.284 126.804 82.604C127.132 82.924 127.296 83.324 127.296 83.804C127.296 84.284 127.132 84.688 126.804 85.016C126.484 85.344 126.06 85.508 125.532 85.508C125.02 85.508 124.6 85.344 124.272 85.016C123.944 84.688 123.78 84.284 123.78 83.804C123.78 83.324 123.944 82.924 124.272 82.604C124.6 82.284 125.02 82.124 125.532 82.124ZM134.87 101V88.328H137.186L137.39 89.972C137.918 89.324 138.542 88.832 139.262 88.496C139.982 88.16 140.722 87.992 141.482 87.992C142.666 87.992 143.55 88.324 144.134 88.988C144.726 89.644 145.022 90.568 145.022 91.76V101H142.334V93.092C142.334 92.356 142.29 91.764 142.202 91.316C142.114 90.868 141.938 90.544 141.674 90.344C141.418 90.144 141.034 90.044 140.522 90.044C140.114 90.044 139.726 90.132 139.358 90.308C138.99 90.484 138.654 90.716 138.35 91.004C138.046 91.284 137.782 91.584 137.558 91.904V101H134.87ZM159.929 86.72L160.649 88.952C160.145 89.12 159.589 89.232 158.981 89.288C158.381 89.344 157.709 89.372 156.965 89.372C157.725 89.708 158.297 90.14 158.681 90.668C159.065 91.188 159.257 91.828 159.257 92.588C159.257 93.412 159.057 94.148 158.657 94.796C158.257 95.444 157.685 95.952 156.941 96.32C156.197 96.688 155.305 96.872 154.265 96.872C153.897 96.872 153.577 96.856 153.305 96.824C153.041 96.792 152.781 96.74 152.525 96.668C152.365 96.78 152.229 96.932 152.117 97.124C152.013 97.308 151.961 97.504 151.961 97.712C151.961 97.968 152.065 98.192 152.273 98.384C152.489 98.568 152.913 98.66 153.545 98.66H155.753C156.657 98.66 157.453 98.816 158.141 99.128C158.837 99.432 159.381 99.852 159.773 100.388C160.173 100.916 160.373 101.516 160.373 102.188C160.373 103.452 159.829 104.432 158.741 105.128C157.653 105.824 156.085 106.172 154.037 106.172C152.589 106.172 151.453 106.024 150.629 105.728C149.805 105.432 149.225 104.992 148.889 104.408C148.553 103.824 148.385 103.108 148.385 102.26H150.797C150.797 102.7 150.881 103.064 151.049 103.352C151.225 103.64 151.549 103.856 152.021 104C152.493 104.144 153.173 104.216 154.061 104.216C154.949 104.216 155.653 104.14 156.173 103.988C156.701 103.844 157.081 103.632 157.313 103.352C157.553 103.08 157.673 102.752 157.673 102.368C157.673 101.856 157.449 101.46 157.001 101.18C156.553 100.9 155.953 100.76 155.201 100.76H153.029C151.829 100.76 150.949 100.516 150.389 100.028C149.837 99.54 149.561 98.972 149.561 98.324C149.561 97.892 149.681 97.476 149.921 97.076C150.169 96.676 150.521 96.328 150.977 96.032C150.217 95.632 149.661 95.148 149.309 94.58C148.965 94.004 148.793 93.308 148.793 92.492C148.793 91.596 149.017 90.812 149.465 90.14C149.913 89.468 150.533 88.944 151.325 88.568C152.125 88.192 153.045 88.004 154.085 88.004C155.101 88.004 155.949 87.952 156.629 87.848C157.309 87.736 157.901 87.58 158.405 87.38C158.917 87.18 159.425 86.96 159.929 86.72ZM154.109 89.852C153.253 89.852 152.609 90.096 152.177 90.584C151.745 91.064 151.529 91.692 151.529 92.468C151.529 93.268 151.749 93.912 152.189 94.4C152.637 94.88 153.289 95.12 154.145 95.12C154.937 95.12 155.541 94.888 155.957 94.424C156.381 93.96 156.593 93.3 156.593 92.444C156.593 91.58 156.385 90.932 155.969 90.5C155.553 90.068 154.933 89.852 154.109 89.852ZM180.73 89.84C181.17 89.264 181.682 88.812 182.266 88.484C182.858 88.156 183.506 87.992 184.21 87.992C185.322 87.992 186.222 88.268 186.91 88.82C187.606 89.364 188.114 90.136 188.434 91.136C188.762 92.128 188.926 93.296 188.926 94.64C188.926 95.928 188.734 97.076 188.35 98.084C187.966 99.092 187.398 99.884 186.646 100.46C185.902 101.036 184.982 101.324 183.886 101.324C182.47 101.324 181.358 100.8 180.55 99.752L180.406 101H178.042V83.24L180.73 82.94V89.84ZM183.214 99.272C184.126 99.272 184.83 98.9 185.326 98.156C185.83 97.412 186.082 96.244 186.082 94.652C186.082 93.572 185.982 92.696 185.782 92.024C185.582 91.344 185.286 90.848 184.894 90.536C184.51 90.224 184.038 90.068 183.478 90.068C182.878 90.068 182.35 90.248 181.894 90.608C181.438 90.968 181.05 91.392 180.73 91.88V97.808C181.026 98.264 181.382 98.624 181.798 98.888C182.222 99.144 182.694 99.272 183.214 99.272ZM194.665 95.528C194.721 96.392 194.905 97.1 195.217 97.652C195.529 98.196 195.937 98.596 196.441 98.852C196.953 99.108 197.513 99.236 198.121 99.236C198.745 99.236 199.321 99.14 199.849 98.948C200.377 98.756 200.909 98.484 201.445 98.132L202.609 99.74C202.017 100.22 201.325 100.604 200.533 100.892C199.741 101.18 198.893 101.324 197.989 101.324C196.677 101.324 195.565 101.044 194.653 100.484C193.749 99.924 193.061 99.144 192.589 98.144C192.117 97.144 191.881 95.988 191.881 94.676C191.881 93.404 192.113 92.268 192.577 91.268C193.041 90.26 193.705 89.464 194.569 88.88C195.433 88.288 196.465 87.992 197.665 87.992C198.793 87.992 199.761 88.248 200.569 88.76C201.385 89.272 202.013 90 202.453 90.944C202.901 91.88 203.125 93.008 203.125 94.328C203.125 94.544 203.117 94.76 203.101 94.976C203.093 95.184 203.081 95.368 203.065 95.528H194.665ZM197.689 89.984C196.849 89.984 196.153 90.284 195.601 90.884C195.057 91.484 194.741 92.42 194.653 93.692H200.521C200.497 92.5 200.241 91.584 199.753 90.944C199.273 90.304 198.585 89.984 197.689 89.984ZM211.432 99.26C212.272 99.26 212.94 99.112 213.436 98.816C213.932 98.512 214.18 98.096 214.18 97.568C214.18 97.224 214.108 96.932 213.964 96.692C213.82 96.444 213.532 96.22 213.1 96.02C212.668 95.812 212.012 95.596 211.132 95.372C210.3 95.156 209.568 94.9 208.936 94.604C208.312 94.308 207.828 93.924 207.484 93.452C207.14 92.98 206.968 92.372 206.968 91.628C206.968 90.9 207.172 90.264 207.58 89.72C207.988 89.176 208.572 88.752 209.332 88.448C210.1 88.144 211 87.992 212.032 87.992C213.096 87.992 214.024 88.132 214.816 88.412C215.608 88.692 216.284 89.04 216.844 89.456L215.716 91.148C215.22 90.82 214.676 90.552 214.084 90.344C213.5 90.136 212.84 90.032 212.104 90.032C211.248 90.032 210.632 90.16 210.256 90.416C209.888 90.672 209.704 91.012 209.704 91.436C209.704 91.748 209.796 92.012 209.98 92.228C210.172 92.436 210.5 92.632 210.964 92.816C211.428 92.992 212.084 93.2 212.932 93.44C213.756 93.664 214.472 93.928 215.08 94.232C215.696 94.536 216.172 94.94 216.508 95.444C216.852 95.94 217.023 96.588 217.023 97.388C217.023 98.3 216.76 99.048 216.232 99.632C215.712 100.208 215.024 100.636 214.168 100.916C213.32 101.188 212.408 101.324 211.432 101.324C210.256 101.324 209.24 101.156 208.384 100.82C207.528 100.476 206.808 100.048 206.224 99.536L207.652 97.904C208.148 98.304 208.716 98.632 209.356 98.888C209.996 99.136 210.688 99.26 211.432 99.26ZM231.798 100.328C231.334 100.624 230.778 100.864 230.13 101.048C229.482 101.232 228.806 101.324 228.102 101.324C226.63 101.324 225.51 100.944 224.742 100.184C223.982 99.416 223.602 98.408 223.602 97.16V90.284H220.782V88.328H223.602V85.496L226.29 85.172V88.328H230.562L230.262 90.284H226.29V97.136C226.29 97.816 226.458 98.324 226.794 98.66C227.138 98.988 227.698 99.152 228.474 99.152C228.938 99.152 229.366 99.096 229.758 98.984C230.15 98.872 230.506 98.728 230.826 98.552L231.798 100.328ZM256.175 87.992C257.295 87.992 258.191 88.268 258.863 88.82C259.535 89.364 260.023 90.136 260.327 91.136C260.631 92.128 260.783 93.296 260.783 94.64C260.783 95.928 260.599 97.076 260.231 98.084C259.863 99.092 259.315 99.884 258.587 100.46C257.867 101.036 256.971 101.324 255.899 101.324C254.571 101.324 253.499 100.856 252.683 99.92V105.872L249.995 106.172V88.328H252.335L252.503 89.96C252.983 89.304 253.539 88.812 254.171 88.484C254.811 88.156 255.479 87.992 256.175 87.992ZM255.431 90.068C254.831 90.068 254.303 90.248 253.847 90.608C253.391 90.968 253.003 91.392 252.683 91.88V97.808C252.987 98.264 253.347 98.616 253.763 98.864C254.187 99.104 254.663 99.224 255.191 99.224C256.095 99.224 256.783 98.86 257.255 98.132C257.727 97.404 257.963 96.244 257.963 94.652C257.963 93.572 257.867 92.696 257.675 92.024C257.491 91.344 257.211 90.848 256.835 90.536C256.467 90.224 255.999 90.068 255.431 90.068ZM264.506 101V99.08H266.366V90.236H264.506V88.328H268.418L268.91 91.268C269.382 90.204 269.966 89.396 270.662 88.844C271.366 88.284 272.27 88.004 273.374 88.004C273.75 88.004 274.086 88.036 274.382 88.1C274.686 88.156 274.986 88.232 275.282 88.328L274.478 90.632C274.222 90.56 273.982 90.508 273.758 90.476C273.534 90.436 273.286 90.416 273.014 90.416C272.094 90.416 271.298 90.76 270.626 91.448C269.962 92.136 269.438 93.112 269.054 94.376V99.08H271.61V101H264.506ZM272.906 92.996V89.876L273.242 88.328H275.282L274.826 92.996H272.906ZM288.461 97.892C288.461 98.388 288.537 98.752 288.689 98.984C288.841 99.208 289.085 99.376 289.421 99.488L288.821 101.312C288.197 101.24 287.661 101.068 287.213 100.796C286.765 100.524 286.425 100.112 286.193 99.56C285.729 100.144 285.141 100.584 284.429 100.88C283.717 101.176 282.957 101.324 282.149 101.324C280.869 101.324 279.853 100.964 279.101 100.244C278.357 99.516 277.985 98.564 277.985 97.388C277.985 96.052 278.505 95.024 279.545 94.304C280.585 93.584 282.073 93.224 284.009 93.224H285.821V92.396C285.821 91.58 285.573 90.992 285.077 90.632C284.589 90.272 283.897 90.092 283.001 90.092C282.585 90.092 282.081 90.148 281.489 90.26C280.897 90.364 280.277 90.528 279.629 90.752L278.969 88.856C279.761 88.56 280.537 88.344 281.297 88.208C282.057 88.064 282.761 87.992 283.409 87.992C285.105 87.992 286.369 88.368 287.201 89.12C288.041 89.872 288.461 90.912 288.461 92.24V97.892ZM282.965 99.344C283.509 99.344 284.041 99.2 284.561 98.912C285.081 98.624 285.501 98.22 285.821 97.7V94.904H284.333C283.069 94.904 282.165 95.116 281.621 95.54C281.077 95.956 280.805 96.532 280.805 97.268C280.805 97.94 280.985 98.456 281.345 98.816C281.713 99.168 282.253 99.344 282.965 99.344ZM299.275 99.116C299.867 99.116 300.419 99.016 300.931 98.816C301.443 98.608 301.931 98.34 302.395 98.012L303.643 99.74C303.091 100.212 302.419 100.596 301.627 100.892C300.843 101.18 300.031 101.324 299.191 101.324C297.895 101.324 296.787 101.052 295.867 100.508C294.947 99.956 294.243 99.184 293.755 98.192C293.267 97.2 293.023 96.044 293.023 94.724C293.023 93.436 293.267 92.288 293.755 91.28C294.251 90.264 294.963 89.464 295.891 88.88C296.819 88.288 297.935 87.992 299.239 87.992C300.103 87.992 300.899 88.12 301.627 88.376C302.355 88.632 303.023 89.012 303.631 89.516L302.395 91.208C301.899 90.864 301.391 90.604 300.871 90.428C300.359 90.244 299.831 90.152 299.287 90.152C298.287 90.152 297.467 90.52 296.827 91.256C296.195 91.992 295.879 93.148 295.879 94.724C295.879 95.78 296.023 96.632 296.311 97.28C296.607 97.92 297.011 98.388 297.523 98.684C298.035 98.972 298.619 99.116 299.275 99.116ZM318.142 100.328C317.678 100.624 317.122 100.864 316.474 101.048C315.826 101.232 315.15 101.324 314.446 101.324C312.974 101.324 311.854 100.944 311.086 100.184C310.326 99.416 309.946 98.408 309.946 97.16V90.284H307.126V88.328H309.946V85.496L312.634 85.172V88.328H316.906L316.606 90.284H312.634V97.136C312.634 97.816 312.802 98.324 313.138 98.66C313.482 98.988 314.042 99.152 314.818 99.152C315.282 99.152 315.71 99.096 316.102 98.984C316.494 98.872 316.85 98.728 317.17 98.552L318.142 100.328ZM328.873 88.328V99.032H332.317V101H322.393V99.032H326.185V90.296H322.513V88.328H328.873ZM327.001 82.124C327.529 82.124 327.953 82.284 328.273 82.604C328.601 82.924 328.765 83.324 328.765 83.804C328.765 84.284 328.601 84.688 328.273 85.016C327.953 85.344 327.529 85.508 327.001 85.508C326.489 85.508 326.069 85.344 325.741 85.016C325.413 84.688 325.249 84.284 325.249 83.804C325.249 83.324 325.413 82.924 325.741 82.604C326.069 82.284 326.489 82.124 327.001 82.124ZM342.447 99.116C343.039 99.116 343.591 99.016 344.103 98.816C344.615 98.608 345.103 98.34 345.567 98.012L346.815 99.74C346.263 100.212 345.591 100.596 344.799 100.892C344.015 101.18 343.203 101.324 342.363 101.324C341.067 101.324 339.959 101.052 339.039 100.508C338.119 99.956 337.415 99.184 336.927 98.192C336.439 97.2 336.195 96.044 336.195 94.724C336.195 93.436 336.439 92.288 336.927 91.28C337.423 90.264 338.135 89.464 339.063 88.88C339.991 88.288 341.107 87.992 342.411 87.992C343.275 87.992 344.071 88.12 344.799 88.376C345.527 88.632 346.195 89.012 346.803 89.516L345.567 91.208C345.071 90.864 344.563 90.604 344.043 90.428C343.531 90.244 343.003 90.152 342.459 90.152C341.459 90.152 340.639 90.52 339.999 91.256C339.367 91.992 339.051 93.148 339.051 94.724C339.051 95.78 339.195 96.632 339.483 97.28C339.779 97.92 340.183 98.388 340.695 98.684C341.207 98.972 341.791 99.116 342.447 99.116ZM352.962 95.528C353.018 96.392 353.202 97.1 353.514 97.652C353.826 98.196 354.234 98.596 354.738 98.852C355.25 99.108 355.81 99.236 356.418 99.236C357.042 99.236 357.618 99.14 358.146 98.948C358.674 98.756 359.206 98.484 359.742 98.132L360.906 99.74C360.314 100.22 359.622 100.604 358.83 100.892C358.038 101.18 357.19 101.324 356.286 101.324C354.974 101.324 353.862 101.044 352.95 100.484C352.046 99.924 351.358 99.144 350.886 98.144C350.414 97.144 350.178 95.988 350.178 94.676C350.178 93.404 350.41 92.268 350.874 91.268C351.338 90.26 352.002 89.464 352.866 88.88C353.73 88.288 354.762 87.992 355.962 87.992C357.09 87.992 358.058 88.248 358.866 88.76C359.682 89.272 360.31 90 360.75 90.944C361.198 91.88 361.422 93.008 361.422 94.328C361.422 94.544 361.414 94.76 361.398 94.976C361.39 95.184 361.378 95.368 361.362 95.528H352.962ZM355.986 89.984C355.146 89.984 354.45 90.284 353.898 90.884C353.354 91.484 353.038 92.42 352.95 93.692H358.818C358.794 92.5 358.538 91.584 358.05 90.944C357.57 90.304 356.882 89.984 355.986 89.984ZM369.728 99.26C370.568 99.26 371.236 99.112 371.732 98.816C372.228 98.512 372.476 98.096 372.476 97.568C372.476 97.224 372.404 96.932 372.26 96.692C372.116 96.444 371.828 96.22 371.396 96.02C370.964 95.812 370.308 95.596 369.428 95.372C368.596 95.156 367.864 94.9 367.232 94.604C366.608 94.308 366.124 93.924 365.78 93.452C365.436 92.98 365.264 92.372 365.264 91.628C365.264 90.9 365.468 90.264 365.876 89.72C366.284 89.176 366.868 88.752 367.628 88.448C368.396 88.144 369.296 87.992 370.328 87.992C371.392 87.992 372.32 88.132 373.112 88.412C373.904 88.692 374.58 89.04 375.14 89.456L374.012 91.148C373.516 90.82 372.972 90.552 372.38 90.344C371.796 90.136 371.136 90.032 370.4 90.032C369.544 90.032 368.928 90.16 368.552 90.416C368.184 90.672 368 91.012 368 91.436C368 91.748 368.092 92.012 368.276 92.228C368.468 92.436 368.796 92.632 369.26 92.816C369.724 92.992 370.38 93.2 371.228 93.44C372.052 93.664 372.768 93.928 373.376 94.232C373.992 94.536 374.468 94.94 374.804 95.444C375.148 95.94 375.32 96.588 375.32 97.388C375.32 98.3 375.056 99.048 374.528 99.632C374.008 100.208 373.32 100.636 372.464 100.916C371.616 101.188 370.704 101.324 369.728 101.324C368.552 101.324 367.536 101.156 366.68 100.82C365.824 100.476 365.104 100.048 364.52 99.536L365.948 97.904C366.444 98.304 367.012 98.632 367.652 98.888C368.292 99.136 368.984 99.26 369.728 99.26Z" fill="white"/>
<rect width="41.472" height="28.704" transform="translate(11)" fill="#282C33"/>
<path d="M29.56 19.616C29.56 21.0453 29.0373 22.2507 27.992 23.232C26.968 24.2133 25.72 24.704 24.248 24.704C22.7333 24.704 21.4747 24.2133 20.472 23.232C19.4907 22.2507 19 21.0453 19 19.616C19 18.9333 19.096 18.208 19.288 17.44C19.48 16.672 19.864 15.68 20.44 14.464L25.4 4H30.2L27.544 15.584C28.1413 16.0107 28.6213 16.576 28.984 17.28C29.368 17.9627 29.56 18.7413 29.56 19.616ZM43.8 19.616C43.8 21.0453 43.2773 22.2507 42.232 23.232C41.1867 24.2133 39.9387 24.704 38.488 24.704C37.016 24.704 35.768 24.2133 34.744 23.232C33.7413 22.2507 33.24 21.0453 33.24 19.616C33.24 18.9333 33.336 18.208 33.528 17.44C33.72 16.672 34.1147 15.68 34.712 14.464L39.704 4H44.472L41.784 15.584C42.4027 16.0107 42.8933 16.576 43.256 17.28C43.6187 17.9627 43.8 18.7413 43.8 19.616Z" fill="#ABB2BF"/>
<rect width="41.472" height="28.704" transform="translate(697 94)" fill="#282C33"/>
<path d="M715.56 113.616C715.56 115.045 715.037 116.251 713.992 117.232C712.968 118.213 711.72 118.704 710.248 118.704C708.733 118.704 707.475 118.213 706.472 117.232C705.491 116.251 705 115.045 705 113.616C705 112.933 705.096 112.208 705.288 111.44C705.48 110.672 705.864 109.68 706.44 108.464L711.4 98H716.2L713.544 109.584C714.141 110.011 714.621 110.576 714.984 111.28C715.368 111.963 715.56 112.741 715.56 113.616ZM729.8 113.616C729.8 115.045 729.277 116.251 728.232 117.232C727.187 118.213 725.939 118.704 724.488 118.704C723.016 118.704 721.768 118.213 720.744 117.232C719.741 116.251 719.24 115.045 719.24 113.616C719.24 112.933 719.336 112.208 719.528 111.44C719.72 110.672 720.115 109.68 720.712 108.464L725.704 98H730.472L727.784 109.584C728.403 110.011 728.893 110.576 729.256 111.28C729.619 111.963 729.8 112.741 729.8 113.616Z" fill="#ABB2BF"/>
</svg>
